/* XPM */
static char * idle_frame_0_xpm[] = {
"64 64 15 1",
" 	c #000000",
".	c #233219",
"+	c #31281D",
"@	c #5D8D38",
"#	c #77B845",
"$	c #3F5D27",
"%	c #141412",
"&	c #4B3720",
"*	c #ECCBAC",
"=	c #BD9168",
"-	c #825E3A",
";	c #44280F",
">	c #70431C",
",	c #191B1A",
"'	c #FFFFFF",
"                                                                ",
"                                                                ",
"                                                                ",
"                                                                ",
"                                                                ",
"                                                                ",
"                                                                ",
"                                                                ",
"                                                                ",
"                                                                ",
"                                                                ",
"                                                                ",
"                                                                ",
"                                                                ",
"                                                                ",
"                                                                ",
"                                                                ",
"                                                                ",
"                            ........+                           ",
"                           .@######@.+                          ",
"                          .$#########.                          ",
"                         .$$#########@.                         ",
"                     .....$$@########$%                         ",
"                     .####$$$@######@$%                         ",
"                      .#@@##$$@$%%..%%$                         ",
"                       .#$$@#$@@%%$$%%&&                        ",
"                        %@$..@@@*$@#..*&                        ",
"                         %...@#**$@#..*&                        ",
"                          %..@@**$$$$**&                        ",
"                           %%.@**$@@#**&                        ",
"                          %%%%.*=$..@*=&+                       ",
"                        +.@@$%%...%%..%++                       ",
"                       %.@@@@@@###@##%%++                       ",
"                      ++.@@@@$#######%%++                       ",
"                      ++%$@@$$#######%%++                       ",
"                      +++%%...@###@##%+++                       ",
"                      +++++%%%.$$$$$%++ %                       ",
"                       + %%%%%%....%   %%                       ",
"                        %%%%%---====%+ %%                       ",
"                       %%%+%;;;>>->-%+++%                       ",
"                       %%%+%;;;>>=>=>%++%                       ",
"                       %%%%;;;;>>=>=>%+++                       ",
"                       %%%%;;;;>>>>>>;%++                       ",
"                       %  %%%%%%%%%%%%%                         ",
"                       %%%%;;;;%++%;;;%%%                       ",
"                       %+%;;;;%,  %;;;%%%                       ",
"                       ++%;;;%%'  %;;;;%%                       ",
"                      ++%>>>>%''  %;>>>>%                       ",
"                                                                ",
"                                                                ",
"                                                                ",
"                                                                ",
"                                                                ",
"                                                                ",
"                                                                ",
"                                                                ",
"                                                                ",
"                                                                ",
"                                                                ",
"                                                                ",
"                                                                ",
"                                                                ",
"                                                                ",
"                                                                "};
