/* XPM */
static char * collectible_xpm[] = {
"68 68 322 2",
"  	c #8D8C8B",
". 	c #6C6A69",
"+ 	c #201611",
"@ 	c #241812",
"# 	c #291B14",
"$ 	c #261913",
"% 	c #2E1E16",
"& 	c #221712",
"* 	c #251913",
"= 	c #281C15",
"- 	c #2C1F17",
"; 	c #332319",
"> 	c #392A1E",
", 	c #3A2A1E",
"' 	c #3D2E21",
") 	c #3E2F22",
"! 	c #271A13",
"~ 	c #2B1C15",
"{ 	c #302118",
"] 	c #38291D",
"^ 	c #3E2E22",
"/ 	c #3F2F23",
"( 	c #211611",
"_ 	c #211711",
": 	c #271A14",
"< 	c #2F1F17",
"[ 	c #302017",
"} 	c #302018",
"| 	c #2E2017",
"1 	c #36271C",
"2 	c #3B2B20",
"3 	c #3C2C21",
"4 	c #3A2B1F",
"5 	c #413125",
"6 	c #433326",
"7 	c #281B14",
"8 	c #2D1F17",
"9 	c #35261B",
"0 	c #392A1F",
"a 	c #3C2C20",
"b 	c #231712",
"c 	c #312219",
"d 	c #322219",
"e 	c #34241B",
"f 	c #3B2C1F",
"g 	c #2C1D15",
"h 	c #39291E",
"i 	c #403124",
"j 	c #413124",
"k 	c #423225",
"l 	c #231812",
"m 	c #2B1D15",
"n 	c #322319",
"o 	c #35251B",
"p 	c #36261C",
"q 	c #37281D",
"r 	c #3C2D20",
"s 	c #3C2D21",
"t 	c #2B1E16",
"u 	c #33241A",
"v 	c #3D2D21",
"w 	c #3B2C20",
"x 	c #403024",
"y 	c #3F3023",
"z 	c #423124",
"A 	c #423122",
"B 	c #3E2D1F",
"C 	c #443223",
"D 	c #453425",
"E 	c #443326",
"F 	c #4A3422",
"G 	c #51371F",
"H 	c #51361C",
"I 	c #54381F",
"J 	c #513821",
"K 	c #4A3524",
"L 	c #50351E",
"M 	c #5D3C1A",
"N 	c #603D19",
"O 	c #613D1A",
"P 	c #5B3B1C",
"Q 	c #4D3520",
"R 	c #342217",
"S 	c #3F2817",
"T 	c #4D331A",
"U 	c #896D32",
"V 	c #AD8E41",
"W 	c #B59444",
"X 	c #A5873E",
"Y 	c #7E632E",
"Z 	c #472D18",
"` 	c #412C1B",
" .	c #3B2B1F",
"..	c #3A2A1F",
"+.	c #3D2A1B",
"@.	c #4F331A",
"#.	c #63441E",
"$.	c #B29244",
"%.	c #E3BF5A",
"&.	c #EDC85E",
"*.	c #D9B656",
"=.	c #A5853D",
"-.	c #5A3A1B",
";.	c #4F351F",
">.	c #413123",
",.	c #493524",
"'.	c #4C3623",
").	c #4B3521",
"!.	c #47311E",
"~.	c #4A3421",
"{.	c #4B3421",
"].	c #46301D",
"^.	c #5C4423",
"/.	c #846830",
"(.	c #A1823B",
"_.	c #C3A14B",
":.	c #DEBB58",
"<.	c #E3C05A",
"[.	c #E1BF5A",
"}.	c #CFAF52",
"|.	c #A4853E",
"1.	c #6B4C23",
"2.	c #594022",
"3.	c #403022",
"4.	c #483525",
"5.	c #523821",
"6.	c #5A3B1E",
"7.	c #593A1D",
"8.	c #58391B",
"9.	c #593A1C",
"0.	c #7A5E2A",
"a.	c #B79746",
"b.	c #DDBA57",
"c.	c #C8A64D",
"d.	c #AF8E41",
"e.	c #A3863E",
"f.	c #9D823D",
"g.	c #947B3A",
"h.	c #896E35",
"i.	c #7B5E2F",
"j.	c #614A26",
"k.	c #37281B",
"l.	c #37291F",
"m.	c #583A1F",
"n.	c #64411A",
"o.	c #755424",
"p.	c #83632C",
"q.	c #85652D",
"r.	c #A0803A",
"s.	c #D8B555",
"t.	c #FCD766",
"u.	c #CAA84F",
"v.	c #7C5D29",
"w.	c #4F3116",
"x.	c #362213",
"y.	c #47361D",
"z.	c #72592D",
"A.	c #856935",
"B.	c #664F28",
"C.	c #2F2115",
"D.	c #31241B",
"E.	c #3E2F23",
"F.	c #2E1F17",
"G.	c #473221",
"H.	c #57391D",
"I.	c #6C4A1F",
"J.	c #A3833C",
"K.	c #C8A74E",
"L.	c #CEAC50",
"M.	c #D7B454",
"N.	c #C6A74E",
"O.	c #6F5727",
"P.	c #3D2614",
"Q.	c #2D1C12",
"R.	c #2F2119",
"S.	c #34241A",
"T.	c #442F1E",
"U.	c #56381B",
"V.	c #725123",
"W.	c #C4A34C",
"X.	c #F7D264",
"Y.	c #FFD967",
"Z.	c #C3A54E",
"`.	c #604F26",
" +	c #211511",
".+	c #38291E",
"++	c #4A311D",
"@+	c #5C411D",
"#+	c #A4863F",
"$+	c #D0AF53",
"%+	c #D1B054",
"&+	c #CAAB51",
"*+	c #CBAB51",
"=+	c #D1B154",
"-+	c #D5B355",
";+	c #CEAE53",
">+	c #C7A950",
",+	c #C7A94F",
"'+	c #C9AA50",
")+	c #D0B053",
"!+	c #D4B255",
"~+	c #A48941",
"{+	c #524220",
"]+	c #311F12",
"^+	c #402814",
"/+	c #59401F",
"(+	c #775C2E",
"_+	c #31231A",
":+	c #3D2E22",
"<+	c #403023",
"[+	c #38271B",
"}+	c #3D2B17",
"|+	c #775F2F",
"1+	c #9B7D3D",
"2+	c #8F7539",
"3+	c #77622F",
"4+	c #79632F",
"5+	c #907639",
"6+	c #9B7E3E",
"7+	c #866D35",
"8+	c #6B592A",
"9+	c #695729",
"0+	c #745F2D",
"a+	c #8D7338",
"b+	c #9E803F",
"c+	c #7A6330",
"d+	c #3F301A",
"e+	c #533417",
"f+	c #684821",
"g+	c #7C5F2E",
"h+	c #2B1E14",
"i+	c #574323",
"j+	c #634D29",
"k+	c #43331E",
"l+	c #45341D",
"m+	c #644E28",
"n+	c #71582D",
"o+	c #554222",
"p+	c #261912",
"q+	c #291C15",
"r+	c #2A1D16",
"s+	c #3E2E1B",
"t+	c #604B27",
"u+	c #755C2F",
"v+	c #685129",
"w+	c #584423",
"x+	c #5F4623",
"y+	c #6A4D24",
"z+	c #715327",
"A+	c #74582C",
"B+	c #72592E",
"C+	c #5A4625",
"D+	c #35271B",
"E+	c #251912",
"F+	c #3C2D19",
"G+	c #4C3A1F",
"H+	c #483720",
"I+	c #3D2E1F",
"J+	c #3B2C1C",
"K+	c #47361E",
"L+	c #4B391E",
"M+	c #3B2C19",
"N+	c #231711",
"O+	c #32241A",
"P+	c #34261B",
"Q+	c #392A1C",
"R+	c #45351F",
"S+	c #503D20",
"T+	c #654F28",
"U+	c #765C2F",
"V+	c #7C6131",
"W+	c #7F6331",
"X+	c #795D2E",
"Y+	c #644D27",
"Z+	c #4D3B1F",
"`+	c #463521",
" @	c #35251C",
".@	c #30231A",
"+@	c #271B15",
"@@	c #2C1E17",
"#@	c #31221A",
"$@	c #2F2018",
"%@	c #2A1C15",
"&@	c #251813",
"*@	c #2B1D16",
"=@	c #5C4725",
"-@	c #795F30",
";@	c #7F6432",
">@	c #735B2D",
",@	c #544022",
"'@	c #33231A",
")@	c #37271D",
"!@	c #3B2D20",
"~@	c #34261C",
"{@	c #33241B",
"]@	c #302119",
"^@	c #2E2018",
"/@	c #2C1E16",
"(@	c #2F2017",
"_@	c #594423",
":@	c #554122",
"<@	c #43321C",
"[@	c #302219",
"}@	c #37281E",
"|@	c #2F2219",
"1@	c #33251C",
"2@	c #34271C",
"3@	c #37291E",
"4@	c #382A1E",
"5@	c #3A2C20",
"6@	c #312119",
"7@	c #413225",
"8@	c #35261C",
"9@	c #36281D",
"0@	c #3C2D22",
"a@	c #221812",
"b@	c #231913",
"c@	c #251A14",
"d@	c #34251B",
"e@	c #312118",
"f@	c #2A1D15",
"g@	c #302319",
"  . . . . . . . . . . . . . . . . . . . . . . . . . . . . . . . . . . . . . . . . . . . . . . . . . . . . . . . . . . . . . . . . . .   ",
". + + + + @ # # # # # # # # # # # # # # # # # # # # # # # # # # # # # # # # # # # # # # # # # # # # # # # # # # # # # # # # @ + + + + . ",
". + + + + $ % % % % % % % % % % % % % % % % % % % % % % % % % % % % % % % % % % % % % % % % % % % % % % % % % % % % % % % % $ + + + + . ",
". + + + + $ % % % % % % % % % % % % % % % % % % % % % % % % % % % % % % % % % % % % % % % % % % % % % % % % % % % % % % % % $ + + + + . ",
". + + + + & * * * * * * * * * * * * * * * * * * * * * * * * * * * * * * * * * * * * * * * * * * * * * * * * * * * * * * * * & + + + + . ",
". @ $ $ $ = - - - - - - - - - - - - - - - - - - - - - - - - - - - - - - - - - - - - - - - - - - - - - - - - - - - - - - - - = $ $ $ @ . ",
". # % % % ; > > > > > > > > > > > > > > > > > > > > > > > > > > > > > > > > > > > > > > > > > > > > > > > > > > > > > > > > ; % % % # . ",
". # % % % ; > > > > > > > > > > > > > > > > > > > > > > > > > > > > > > > > > > > > > > > > > > > > > > > > > > > > > > > > ; % % % # . ",
". # % % % ; , ' ) ) ) ) ) ) ) ) ) ) ) ) ) ) ) ) ) ) ) ) ) ) ) ) ) ) ) ) ) ) ) ) ) ) ) ) ) ) ) ) ) ) ) ) ) ) ) ) ) ) ) ) ' , ; % % % # . ",
". ! ~ ~ ~ { ] ^ / / / / / / / / / / / / / / / / / / / / / / / / / / / / / / / / / / / / / / / / / / / / / / / / / / / / ^ ] { ~ ~ ~ ! . ",
". ( _ _ _ : < [ } } } } } } } } } } } } } } } } } } } } } } } } } } } } } } } } } } } } } } } } } } } } } } } } } } } } [ < : _ _ _ ( . ",
". $ # # # | 1 2 3 3 3 3 3 3 3 3 3 3 3 3 3 3 3 3 3 3 3 3 3 3 3 3 3 3 3 3 3 3 3 3 3 3 3 3 3 3 3 3 3 3 3 3 3 3 3 3 3 3 3 3 2 1 | # # # $ . ",
". # % % % ; 4 5 6 6 6 6 6 6 6 6 6 6 6 6 6 6 6 6 6 6 6 6 6 6 6 6 6 6 6 6 6 6 6 6 6 6 6 6 6 6 6 6 6 6 6 6 6 6 6 6 6 6 6 6 5 4 ; % % % # . ",
". # % % % ; 4 5 6 6 6 6 6 6 6 6 6 6 6 6 6 6 6 6 6 6 6 6 6 6 6 6 6 6 6 6 6 6 6 6 6 6 6 6 6 6 6 6 6 6 6 6 6 6 6 6 6 6 6 6 5 4 ; % % % # . ",
". # % % % ; 4 5 6 6 6 6 6 6 6 6 6 6 6 6 6 6 6 6 6 6 6 6 6 6 6 6 6 6 6 6 6 6 6 6 6 6 6 6 6 6 6 6 6 6 6 6 6 6 6 6 6 6 6 6 5 4 ; % % % # . ",
". * 7 7 7 8 9 0 2 a ) / / / / / / / / / / / / / / / / / / / / / / / / / / / / / / / / / / / / / / / / / / / / / / ) a 2 0 9 8 7 7 7 * . ",
". _ b b b 7 } c d e 4 f f f f f f f f f f f f f f f f f f f f f f f f f f f f f f f f f f f f f f f f f f f f f f 4 e d c } 7 b b b _ . ",
". : g g g c h / i j k k k k k k k k k k k k k k k k k k k k k k k k k k k k k k k k k k k k k k k k k k k k k k k k j i / h c g g g : . ",
". # % % % ; 4 5 6 6 6 6 6 6 6 6 6 6 6 6 6 6 6 6 6 6 6 6 6 6 6 6 6 6 6 6 6 6 6 6 6 6 6 6 6 6 6 6 6 6 6 6 6 6 6 6 6 6 6 6 5 4 ; % % % # . ",
". # % % % ; 4 5 6 6 6 6 6 6 6 6 6 6 6 6 6 6 6 6 6 6 6 6 6 6 6 6 6 6 6 6 6 6 6 6 6 6 6 6 6 6 6 6 6 6 6 6 6 6 6 6 6 6 6 6 5 4 ; % % % # . ",
". # % % % ; 4 5 6 6 6 6 6 6 6 6 6 6 6 6 6 6 6 6 6 6 6 6 6 6 6 6 6 6 6 6 6 6 6 6 6 6 6 6 6 6 6 6 6 6 6 6 6 6 6 6 6 6 6 6 5 4 ; % % % # . ",
". l * * * m n o p q r s s s s s s s s s s s s s s s s s s s s s s s s s s s s s s s s s s s s s s s s s s s s s s r q p o n m * * * l . ",
". @ $ $ $ t u 1 q h v ' ' ' ' ' ' ' ' ' ' ' ' ' ' w > > > > > > > > > > > > r a > s ' ' ' ' ' ' ' ' ' ' ' ' ' ' ' v h q 1 u t $ $ $ @ . ",
". # % % % ; 4 5 6 6 6 6 6 6 6 6 6 6 6 6 6 6 6 6 6 ) > > > > > > > > > > > > x y 4 j 6 6 6 6 6 6 6 6 6 6 6 6 6 6 6 6 6 6 5 4 ; % % % # . ",
". # % % % ; 4 5 6 6 6 6 6 6 6 6 6 6 6 6 6 6 6 6 6 ) > > > > > > > > > > > > z A B C D E 6 6 6 6 6 6 6 6 6 6 6 6 6 6 6 6 5 4 ; % % % # . ",
". # % % % ; 4 5 6 6 6 6 6 6 6 6 6 6 6 6 6 6 6 6 6 ) > > > > > > > > > > > , F G H I J K 6 6 6 6 6 6 6 6 6 6 6 6 6 6 6 6 5 4 ; % % % # . ",
". ! m m m { ] ^ / x j j j j j j j j j j j j i / / w q q q q q q q q q q q ] L M N O P Q / i j j j j j j j j j j j j x / ^ ] { m m m ! . ",
". ( _ _ _ : < } } n > 4 4 4 4 4 4 4 4 4 4 4 1 } } [ < < < < < < < < < R S T U V W W X Y Z `  .4 4 4 4 4 4 4 4 4 4 > n } } < : _ _ _ ( . ",
". $ # # # | 1 2 3 v y y y y y y y y y y y y ^ 3 3 3 2 p 0 ..9 9 9 9 9 +.@.#.$.%.&.&.*.=.-.;.>.y y y y y y y y y y y v 3 2 1 | # # # $ . ",
". # % % % ; 4 5 6 6 6 6 6 6 6 6 6 6 6 D ,.'.'.'.'.'.).!.~.{.].].].].].^./.(._.:.<.[.}.|.1.2.3./ k 6 6 6 6 6 6 6 6 6 6 6 5 4 ; % % % # . ",
". # % % % ; 4 5 6 6 6 6 6 6 6 6 6 6 6 4.5.6.6.6.6.6.7.8.9.7.8.8.8.8.8.0.a.b.c.d.e.f.g.h.i.j.k.l.x 6 6 6 6 6 6 6 6 6 6 6 5 4 ; % % % # . ",
". # % % % ; 4 5 6 6 6 6 6 6 6 6 6 6 6 K m.n.o.p.q.q.q.q.q.q.q.q.q.q.q.r.s.t.u.v.w.x.y.z.A.B.C.D.E.6 6 6 6 6 6 6 6 6 6 6 5 4 ; % % % # . ",
". * 7 7 7 F.9 ..2 3 ) / / / / / / / / G.H.I.J.K.L.L.L.L.L.L.L.L.L.L.L.M.&.t.N.O.P.Q.y.z.A.B.C.R.2 / / / / / / / / ) 3 2 ..9 F.7 7 7 * . ",
". _ & & & 7 [ c d S.4  . . . . . . . .T.U.V.W.X.Y.Y.Y.Y.Y.Y.Y.Y.Y.Y.Y.Y.Y.t.Z.`. + +y.z.A.B.C.8 q  . . . . . . . .4 S.d c [ 7 & & & _ . ",
". : g g g c .+/ i j k k k k k k k k k C ++@+#+$+%+&+*+=+-+;+>+,+,+,+,+'+)+!+~+{+]+^+/+(+A.B.C._+:+k k k k k k k k k j i / .+c g g g : . ",
". # % % % ; 4 5 6 6 6 6 6 6 6 6 6 6 6 <+[+}+|+1+2+3+4+5+6+7+8+9+9+9+9+0+a+b+c+d+P.e+f+g+A.B.C.D.E.6 6 6 6 6 6 6 6 6 6 6 5 4 ; % % % # . ",
". # % % % ; 4 5 6 6 6 6 6 6 6 6 6 6 6 E.D.h+i+z.j+k+l+m+n+o+p+* q+r+r+s+t+u+v+w+x+y+z+A+B+C+D+l.x 6 6 6 6 6 6 6 6 6 6 6 5 4 ; % % % # . ",
". # % % % ; 4 5 6 6 6 6 6 6 6 6 6 6 6 E.D.E+F+G+H+I+J+K+L+M+N+r+O+P+P+Q+R+S+T+U+V+W+X+Y+Z+`+:+/ k 6 6 6 6 6 6 6 6 6 6 6 5 4 ; % % % # . ",
". l * * * m n  @p q r s s s s s s s s 0 .@+@: $ @@#@$@%@&@&@&@~ { d d { *@m =@-@;@;@>@,@: O+w s s s s s s s s s s r q p  @n m * * * l . ",
". @ $ $ $ *@'@1 )@.+v ' ' ' ' ' ' ' ' !@.+~@{@]@'@p P+$@^@$@/@(@c n n c (@| K+_@=@=@:@<@[@}@' ' ' ' ' ' ' ' ' ' ' v .+)@1 '@*@$ $ $ @ . ",
". # % % % ; 4 5 6 6 6 6 6 6 6 6 6 6 6 6 6 6 6 6 6 6 j 4 y x > > > > > > > > [@$ b b r+~@k 6 6 6 6 6 6 6 6 6 6 6 6 6 6 6 5 4 ; % % % # . ",
". # % % % ; 4 5 6 6 6 6 6 6 6 6 6 6 6 6 6 6 6 6 6 6 j 4 y x > > > > > > > > P+[@|@1@2@3@k 6 6 6 6 6 6 6 6 6 6 6 6 6 6 6 5 4 ; % % % # . ",
". # % % % ; 4 5 6 6 6 6 6 6 6 6 6 6 6 6 6 6 6 6 6 6 j 4 y x > > > > > > > > .+] 4@/ ' 5@k 6 6 6 6 6 6 6 6 6 6 6 6 6 6 6 5 4 ; % % % # . ",
". ! g g g { ] ^ y x j 5 5 5 5 5 5 5 5 5 5 5 i y y y ^ ] s v q q q q q q q q q q ] ^ w > / i 5 5 5 5 5 5 5 5 5 5 5 j x y ^ ] { g g g ! . ",
". ( & & & : < } { '@> 4 4 4 4 4 4 4 4 4 4 4 1 { { { } < [ } < < < < < < < < < < < } [ (@} 1 4 4 4 4 4 4 4 4 4 4 4 > '@{ } < : & & & ( . ",
". $ # # # | p 2 3 v / y y y y y y y y y y y ^ 3 3 3 3 3 3 3 3 3 3 3 3 3 3 3 3 3 3 3 3 3 3 ^ y y y y y y y y y y y / v 3 2 p | # # # $ . ",
". # % % % ; 4 5 6 6 6 6 6 6 6 6 6 6 6 6 6 6 6 6 6 6 6 6 6 6 6 6 6 6 6 6 6 6 6 6 6 6 6 6 6 6 6 6 6 6 6 6 6 6 6 6 6 6 6 6 5 4 ; % % % # . ",
". # % % % ; 4 5 6 6 6 6 6 6 6 6 6 6 6 6 6 6 6 6 6 6 6 6 6 6 6 6 6 6 6 6 6 6 6 6 6 6 6 6 6 6 6 6 6 6 6 6 6 6 6 6 6 6 6 6 5 4 ; % % % # . ",
". # % % % ; 4 5 6 6 6 6 6 6 6 6 6 6 6 6 6 6 6 6 6 6 6 6 6 6 6 6 6 6 6 6 6 6 6 6 6 6 6 6 6 6 6 6 6 6 6 6 6 6 6 6 6 6 6 6 5 4 ; % % % # . ",
". * # # # F.9 ..2 3 / / / / / / / / / / / / / / / / / / / / / / / / / / / / / / / / / / / / / / / / / / / / / / / / 3 2 ..9 F.# # # * . ",
". _ & & & 7 [ 6@d S.4  . . . . . . . . . . . . . . . . . . . . . . . . . . . . . . . . . . . . . . . . . . . . . .4 S.d 6@[ 7 & & & _ . ",
". : g g g c .+/ x j 7@k k k k k k k k k k k k k k k k k k k k k k k k k k k k k k k k k k k k k k k k k k k k k k 7@j x / .+c g g g : . ",
". # % % % ; 4 5 6 6 6 6 6 6 6 6 6 6 6 6 6 6 6 6 6 6 6 6 6 6 6 6 6 6 6 6 6 6 6 6 6 6 6 6 6 6 6 6 6 6 6 6 6 6 6 6 6 6 6 6 5 4 ; % % % # . ",
". # % % % ; 4 5 6 6 6 6 6 6 6 6 6 6 6 6 6 6 6 6 6 6 6 6 6 6 6 6 6 6 6 6 6 6 6 6 6 6 6 6 6 6 6 6 6 6 6 6 6 6 6 6 6 6 6 6 5 4 ; % % % # . ",
". # % % % ; 4 5 6 6 6 6 6 6 6 6 6 6 6 6 6 6 6 6 6 6 6 6 6 6 6 6 6 6 6 6 6 6 6 6 6 6 6 6 6 6 6 6 6 6 6 6 6 6 6 6 6 6 6 6 5 4 ; % % % # . ",
". l * * * m n 8@p q s v v v v v v v v v v v v v v v v v v v v v v v v v v v v v v v v v v v v v v v v v v v v v v s q p 8@n m * * * l . ",
". l $ $ $ *@'@p )@.+v ' ' ' ' ' ' ' ' ' ' ' ' ' ' ' ' ' ' ' ' ' ' ' ' ' ' ' ' ' ' ' ' ' ' ' ' ' ' ' ' ' ' ' ' ' ' v .+)@p '@*@$ $ $ l . ",
". # % % % ; 4 5 6 6 6 6 6 6 6 6 6 6 6 6 6 6 6 6 6 6 6 6 6 6 6 6 6 6 6 6 6 6 6 6 6 6 6 6 6 6 6 6 6 6 6 6 6 6 6 6 6 6 6 6 5 4 ; % % % # . ",
". # % % % ; 4 5 6 6 6 6 6 6 6 6 6 6 6 6 6 6 6 6 6 6 6 6 6 6 6 6 6 6 6 6 6 6 6 6 6 6 6 6 6 6 6 6 6 6 6 6 6 6 6 6 6 6 6 6 5 4 ; % % % # . ",
". # % % % ; 4 5 6 6 6 6 6 6 6 6 6 6 6 6 6 6 6 6 6 6 6 6 6 6 6 6 6 6 6 6 6 6 6 6 6 6 6 6 6 6 6 6 6 6 6 6 6 6 6 6 6 6 6 6 5 4 ; % % % # . ",
". ! g g g { 9@0@E.E.y y y y y y y y y y y y y y y y y y y y y y y y y y y y y y y y y y y y y y y y y y y y y y y y E.E.0@9@{ g g g ! . ",
". _ & & & a@b@c@c@= } { { { { { { { { { { { { { { { { { { { { { { { { { { { { { { { { { { { { { { { { { { { { { { } = c@c@b@a@& & & _ . ",
". + + + + @ # # # /@d@9 9 9 9 9 9 9 9 9 9 9 9 9 9 9 9 9 9 9 9 9 9 9 9 9 9 9 9 9 9 9 9 9 9 9 9 9 9 9 9 9 9 9 9 9 9 d@/@# # # @ + + + + . ",
". + + + + $ % % % e@] > > > > > > > > > > > > > > > > > > > > > > > > > > > > > > > > > > > > > > > > > > > > > > ] e@% % % $ + + + + . ",
". + + + + $ % % % e@] > > > > > > > > > > > > > > > > > > > > > > > > > > > > > > > > > > > > > > > > > > > > > > ] e@% % % $ + + + + . ",
". + + + + $ % % % e@] > > > > > > > > > > > > > > > > > > > > > > > > > > > > > > > > > > > > > > > > > > > > > > ] e@% % % $ + + + + . ",
". + + + + @ # # # f@|@g@g@g@g@g@g@g@g@g@g@g@g@g@g@g@g@g@g@g@g@g@g@g@g@g@g@g@g@g@g@g@g@g@g@g@g@g@g@g@g@g@g@g@g@g@g@|@f@# # # @ + + + + . ",
"  . . . . . . . . . . . . . . . . . . . . . . . . . . . . . . . . . . . . . . . . . . . . . . . . . . . . . . . . . . . . . . . . . .   "};
