/* XPM */
static char * exit3_xpm[] = {
"68 68 341 2",
"  	c #707070",
". 	c #555555",
"+ 	c #141412",
"@ 	c #737372",
"# 	c #272F3A",
"$ 	c #3A485B",
"% 	c #44566C",
"& 	c #485A71",
"* 	c #20201F",
"= 	c #3E4D61",
"- 	c #617A99",
"; 	c #7390B5",
"> 	c #7998BE",
", 	c #3E4E62",
"' 	c #6580A1",
") 	c #6A86A8",
"! 	c #728FB4",
"~ 	c #7796BC",
"{ 	c #7998BF",
"] 	c #2C3744",
"^ 	c #4B5F77",
"/ 	c #4C6079",
"( 	c #5E7695",
"_ 	c #7694BA",
": 	c #708DB1",
"< 	c #6A85A7",
"[ 	c #6781A1",
"} 	c #657F9F",
"| 	c #1C2025",
"1 	c #485A72",
"2 	c #7897BE",
"3 	c #7796BD",
"4 	c #6F8BAE",
"5 	c #5D7491",
"6 	c #455469",
"7 	c #333D49",
"8 	c #2B3037",
"9 	c #536984",
"0 	c #6E8AAD",
"a 	c #7491B6",
"b 	c #6781A3",
"c 	c #596F8B",
"d 	c #4B5D73",
"e 	c #3E4B5D",
"f 	c #343D4A",
"g 	c #2E343D",
"h 	c #151615",
"i 	c #161818",
"j 	c #252C36",
"k 	c #6D88AB",
"l 	c #5F7694",
"m 	c #4F627B",
"n 	c #3E4B5C",
"o 	c #313943",
"p 	c #2A2F36",
"q 	c #262B30",
"r 	c #25292F",
"s 	c #161717",
"t 	c #141513",
"u 	c #171819",
"v 	c #181A1B",
"w 	c #191C1E",
"x 	c #21272E",
"y 	c #3A485A",
"z 	c #5D7492",
"A 	c #7695BB",
"B 	c #7593B9",
"C 	c #546882",
"D 	c #343E4A",
"E 	c #2B2F36",
"F 	c #2A2F35",
"G 	c #2A2E35",
"H 	c #292E35",
"I 	c #282D33",
"J 	c #1D2023",
"K 	c #191B1D",
"L 	c #181B1C",
"M 	c #151514",
"N 	c #161616",
"O 	c #222324",
"P 	c #435368",
"Q 	c #586E8B",
"R 	c #5F7796",
"S 	c #647D9D",
"T 	c #607897",
"U 	c #4E627A",
"V 	c #3C4858",
"W 	c #2D343C",
"X 	c #272B31",
"Y 	c #1E2125",
"Z 	c #1C1E20",
"` 	c #1B1D1F",
" .	c #1A1C1E",
"..	c #171817",
"+.	c #171919",
"@.	c #161817",
"#.	c #161716",
"$.	c #242627",
"%.	c #252D37",
"&.	c #415165",
"*.	c #556A86",
"=.	c #576D89",
"-.	c #4A5B72",
";.	c #353E4B",
">.	c #2E353E",
",.	c #292E34",
"'.	c #24282D",
").	c #23272B",
"!.	c #1F2125",
"~.	c #1C2125",
"{.	c #333F4E",
"].	c #5B718E",
"^.	c #5F7795",
"/.	c #5C7391",
"(.	c #495A70",
"_.	c #2B3138",
":.	c #24292E",
"<.	c #151616",
"[.	c #29323B",
"}.	c #404E61",
"|.	c #5C7390",
"1.	c #5A708D",
"2.	c #45556A",
"3.	c #374250",
"4.	c #2D333C",
"5.	c #23272C",
"6.	c #1B1D20",
"7.	c #181A1C",
"8.	c #3B495B",
"9.	c #536781",
"0.	c #5E7594",
"a.	c #586D89",
"b.	c #384352",
"c.	c #292D33",
"d.	c #222529",
"e.	c #232A33",
"f.	c #2E3947",
"g.	c #4C5F78",
"h.	c #51647E",
"i.	c #313843",
"j.	c #212222",
"k.	c #425368",
"l.	c #425266",
"m.	c #3D4A5A",
"n.	c #3C4857",
"o.	c #4B5D74",
"p.	c #5A718E",
"q.	c #5D7493",
"r.	c #4C5E75",
"s.	c #333C48",
"t.	c #2C3139",
"u.	c #1A1D1F",
"v.	c #141413",
"w.	c #4E627B",
"x.	c #3E4C5D",
"y.	c #46566A",
"z.	c #5F7695",
"A.	c #586B83",
"B.	c #56687E",
"C.	c #5B708A",
"D.	c #49596F",
"E.	c #1C1E21",
"F.	c #607796",
"G.	c #5A6E87",
"H.	c #5A6E88",
"I.	c #637A98",
"J.	c #576B84",
"K.	c #445367",
"L.	c #272C32",
"M.	c #5D7391",
"N.	c #4D6078",
"O.	c #4C5F76",
"P.	c #475668",
"Q.	c #465363",
"R.	c #424F60",
"S.	c #3D4B5C",
"T.	c #171818",
"U.	c #46576C",
"V.	c #48586B",
"W.	c #4C5C71",
"X.	c #394554",
"Y.	c #384453",
"Z.	c #353E48",
"`.	c #343C45",
" +	c #36404C",
".+	c #2E3641",
"++	c #1F2226",
"@+	c #394553",
"#+	c #363F4B",
"$+	c #353F4D",
"%+	c #32363C",
"&+	c #343E49",
"*+	c #35404D",
"=+	c #282F38",
"-+	c #374350",
";+	c #303842",
">+	c #303741",
",+	c #2F353D",
"'+	c #2E343C",
")+	c #2D333A",
"!+	c #2C3138",
"~+	c #212428",
"{+	c #2F363E",
"]+	c #2F363F",
"^+	c #212529",
"/+	c #1E2124",
"(+	c #191A1B",
"_+	c #2C2F34",
":+	c #1B1E20",
"<+	c #22262B",
"[+	c #1C1F22",
"}+	c #272D33",
"|+	c #292F35",
"1+	c #282E34",
"2+	c #293038",
"3+	c #36404B",
"4+	c #2A3139",
"5+	c #191C1D",
"6+	c #2C353F",
"7+	c #3B4857",
"8+	c #2E3742",
"9+	c #171A1B",
"0+	c #1F2224",
"a+	c #1F2225",
"b+	c #202427",
"c+	c #202428",
"d+	c #3D4957",
"e+	c #506175",
"f+	c #3B4856",
"g+	c #202326",
"h+	c #1D2022",
"i+	c #1A1C1D",
"j+	c #212528",
"k+	c #24282C",
"l+	c #424F5F",
"m+	c #404D5D",
"n+	c #161615",
"o+	c #191B1C",
"p+	c #1E2022",
"q+	c #414E5E",
"r+	c #3F4C5B",
"s+	c #171717",
"t+	c #1C2023",
"u+	c #1D2024",
"v+	c #414D5D",
"w+	c #3E4B5B",
"x+	c #18191A",
"y+	c #17191A",
"z+	c #181B1D",
"A+	c #212427",
"B+	c #222629",
"C+	c #24272C",
"D+	c #292D34",
"E+	c #445262",
"F+	c #1A1E20",
"G+	c #22262A",
"H+	c #262A2F",
"I+	c #2B3036",
"J+	c #455263",
"K+	c #434F60",
"L+	c #1F2326",
"M+	c #1B1D1E",
"N+	c #212429",
"O+	c #394351",
"P+	c #475669",
"Q+	c #36414E",
"R+	c #36404E",
"S+	c #181A1A",
"T+	c #202327",
"U+	c #252A30",
"V+	c #262B31",
"W+	c #262C31",
"X+	c #36414D",
"Y+	c #425061",
"Z+	c #323C49",
"`+	c #353F4B",
" @	c #2C3239",
".@	c #333A43",
"+@	c #333B44",
"@@	c #455262",
"#@	c #55667C",
"$@	c #3F4C5C",
"%@	c #30373F",
"&@	c #1B1F22",
"*@	c #3A4452",
"=@	c #465466",
"-@	c #353F4C",
";@	c #282D34",
">@	c #1D2124",
",@	c #1A1D20",
"'@	c #1E2225",
")@	c #37424F",
"!@	c #435263",
"~@	c #333D4A",
"{@	c #262A30",
"]@	c #282C32",
"^@	c #424F5E",
"/@	c #23262B",
"(@	c #1B1E21",
"_@	c #445364",
":@	c #343E4B",
"<@	c #323D49",
"[@	c #25292E",
"}@	c #252A2F",
"|@	c #333C47",
"1@	c #2C3540",
"2@	c #2F3843",
"3@	c #24282E",
"4@	c #1E2023",
"5@	c #1C2022",
"6@	c #343D49",
"7@	c #313A45",
"8@	c #2F3742",
"9@	c #1E2123",
"0@	c #2D3540",
"a@	c #2B343E",
"b@	c #2B333D",
"c@	c #23272A",
"d@	c #2E3741",
"e@	c #151513",
"f@	c #1D2123",
"g@	c #2C343F",
"h@	c #1C1F21",
"i@	c #21252A",
"j@	c #191B1B",
"k@	c #25292D",
"l@	c #323B46",
"m@	c #272B30",
"n@	c #1D1F21",
"o@	c #303943",
"p@	c #1F2124",
"q@	c #1B1C1D",
"r@	c #29313B",
"s@	c #2A323C",
"t@	c #1B1F23",
"u@	c #35414F",
"v@	c #2D3641",
"w@	c #1D2227",
"x@	c #262D36",
"y@	c #20262B",
"z@	c #565657",
"                    . + + + + + + + + + + + + + + + + + + + + + + + + + + + + + + + + + + + + + + + + + + + + + + .                   @ ",
"+ + + + + + + + + + + + + + + + + + + + + + + + + + # $ % & & & & & & & & & & % $ # + + + + + + + + + + + + + + + + + + + + + + + + + * ",
"+ + + + + + + + + + + + + + + + + + + + + + + + + + = - ; > > > > > > > > > > ; - = + + + + + + + + + + + + + + + + + + + + + + + + + * ",
"+ + + + + + + + + + + + + + + + + + + + + + + , ' ' ) ! ~ { { { { { { { { { { ~ ! ) ' ' , + + + + + + + + + + + + + + + + + + + + + + * ",
"+ + + + + + + + + + + + + + + + + + + + ] ^ / ( { { _ : < [ } } } } } } } } [ < : _ { { ( / ^ ] + + + + + + + + + + + + + + + + + + + * ",
"+ + + + + + + + + + + + + + + + + + + | 1 ~ { { 2 3 4 5 6 7 8 8 8 8 8 8 8 8 7 6 5 4 3 2 { { ~ 1 | + + + + + + + + + + + + + + + + + + * ",
"+ + + + + + + + + + + + + + + + + + + 9 0 2 { a b c d e f g 8 8 8 8 8 8 8 8 g f e d c b a { 2 0 9 + + + + + + + + + + + + + + + + + + * ",
"+ + + + + + + + + + h i i i i i i j = b { { k l m n o 8 8 8 p q r r r r q p 8 8 8 o n m l k { { b = j i i i i s t + + + + + + + + + + * ",
"u u u u u u u u u u v w w w w w x y z 4 A B C D 8 8 E F G H I J K K K K J I H G F E 8 8 D C B A 4 z y x w w w L M N u u u u u u u h M O ",
"w w w w w w w w w w w w w w w w P Q R S T U V W 8 8 X Y Z `  ...h h h h .. .` Z Y X 8 8 W V U T S R Q P w w w L M +.w w w w w w w @.#.$.",
"w w w w w w w w w w w w w w %.&.*.T T =.-.;.>.,.'.).!.u M + + + + + + + + + + M u !.).'.,.>.;.-.=.T T *.&.%.w L M +.w w w w w w w @.#.$.",
"w w w w w w w w w w w w w ~.{.].T ^./.(.D _.F :.L <.+ + + + + + + + + + + + + + + + <.L :.F _.D (./.^.T ].{.~.L M +.w w w w w w w @.#.$.",
"w w w w w w w w w w w w w [.}.|.T 1.2.3.4.8 5.6.h t + + + + + + + + + + + + + + + + t h 6.5.8 4.3.2.1.T |.}.[.L M +.w w w w w w w @.#.$.",
"w w w w w w w w w w 7.u u 8.9.0.T a.b.>.c.d.` s + + + + + + + + + + + + + + + + + + + + s ` d.c.>.b.a.T 0.9.8.i t +.w w w w w w w s #.$.",
"<.<.<.<.<.<.<.<.<.<.e.f.f.g.T T /.h.i.H '.M + + + + + + + + + + + + + + + + + + + + + + + + M '.H i.h./.T T g.f.f.e.<.<.<.<.<.<.<.M t j.",
"k.k.l.m.n.n.n.n.n.n.o.p.p.q.T T r.s.t.5.u.v.+ + + + + + + + + + + + + + + + + + + + + + + + v.u.5.t.s.r.T T q.p.p.w.x.x.k.k.k.k.k.k.k.y.",
"T T z.A.B.B.B.B.B.B.C.T T T T T D.,.5.E.#.+ + + + + + + + + + + + + + + + + + + + + + + + + + #.E.5.,.D.T T T T T F.G.H.T T T T T T T I.",
"T T z.A.B.B.B.B.B.B.J.c c c c c K.L.u.#.+ + + + + + + + + + + + + + + + + + + + + + + + + + + + #.u.L.K.c c c c c M.G.H.T T T T T T T I.",
"N.N.O.P.Q.Q.Q.Q.Q.Q.R.S.S.S.S.S.D X T.v.+ + + + + + + + + + + + + + + + + + + + + + + + + + + + v.T.X D S.S.S.S.S.U.V.V.N.N.N.N.N.N.r.W.",
"X.X.Y.Z.`.`.`.`.`.`. +X.X.X.X.X..+++h + + + + + + + + + + + + + + + + + + + + + + + + + + + + + + h ++.+X.X.X.X.X.@+#+#+X.X.X.X.X.X.$+%+",
"X.X.Y.Z.`.`.`.`.`.`.&+*+*+*+*+*+=++.t + + + + + + + + + + + + + + + + + + + + + + + + + + + + + + t +.=+*+*+*+*+*+-+#+#+X.X.X.X.X.X.$+%+",
";+;+>+,+'+'+'+'+'+'+)+!+!+!+!+!+~++ + + + + + + + + + + + + + + + + + + + + + + + + + + + + + + + + + ~+!+!+!+!+!+>.{+{+;+;+;+;+;+;+]+%+",
"'.'.'.'.'.'.'.'.'.'.^+/+/+/+/+/+(++ + + + + + + + + + + + + + + + + + + + + + + + + + + + + + + + + + (+/+/+/+/+/+^+'.'.'.'.'.'.'.'.'._+",
"t t t t t t t t t t :+<+<+[+s s M + + + + + + + + + + + + + + + + + + + + + + + + + + + + + + + + + + M s s [+<+<+:+t t t t t t t v.+ * ",
"+.L L L L L L L L L }+`.`.|+w w i + + + + + + + + + + + + + + + + + + + + + + + + + + + + + + + + + + i w w |+`.`.}+L L L L L L L #.+ * ",
"v w w w w w w w w w 1+`.`.|+w w i + + + + + + + + + + + + + + + + + + + + + + + + + + + + + + + + + + i w w |+`.`.1+w w w w w w w @.+ * ",
"+.L L L L L w w w w 2+3+3+4+w w i + + + + + + + + + + + + + + + + + + + + + + + + + + + + + + + + + + i w w 4+3+3+2+w K L L L L L #.+ * ",
"t t t t t #.5+w w w 6+7+7+8+w w i + + + + + + + + + + + + + + + + + + + + + + + + + + + + + + + + + + i w w 8+7+7+6+w 9+t t t t t v.+ * ",
"+ (+0+0+0+a+b+b+b+c+d+e+e+n.w w i + + + + + + + + + + + + + + + + + + + + + + + + + + + + + + + + + + i w w n.e+e+f+b+g+0+0+0+h+h + + * ",
"+ i+j+j+j+d.k+k+k+'.l+B.B.m+w w i + + + + + + + + + + + + + + + + + + + + + + + + + + + + + + + + + + i w w m+B.B.m+k+).j+j+j+a+n++ + * ",
"+ @.w w w [+).k+k+'.l+B.B.m+w w i + + + + + + + + + + + + + + + + + + + + + + + + + + + + + + + + + + i w w m+B.B.m+k+c+w w w L M + + * ",
"+ @.w w w [+).k+k+'.l+B.B.m+w w i + + + + + + + + + + + + + + + + + + + + + + + + + + + + + + + + + + i w w m+B.B.m+k+c+w w w L M + + * ",
"+ h +.+.+.o+p+a+g+b+q+B.B.m+w w i + + + + + + + + + + + + + + + + + + + + + + + + + + + + + + + + + + i w w m+B.B.r+0+Z +.+.+.i t + + * ",
"M M h s+T.T.(+:+t+u+v+B.B.m+w w i + + + + + + + + + + + + + + + + + + + + + + + + + + + + + + + + + + i w w m+B.B.w+ .x+T.T.#.M M t + * ",
"y+z+ .A+B+C+I D+,.H E+B.B.m+w w i + + + + + + + + + + + + + + + + + + + + + + + + + + + + + + + + + + i w w m+B.B.l+D+q B+B+/+z+z+s + * ",
"v w F+G+k+H+I+8 8 !+J+B.B.m+w w i + + + + + + + + + + + + + + + + + + + + + + + + + + + + + + + + + + i w w m+B.B.K+8 c.k+k+L+w w @.+ * ",
"v w F+G+k+H+I+8 8 !+J+B.B.m+w w i + + + + + + + + + + + + + + + + + + + + + + + + + + + + + + + + + + i w w m+B.B.K+8 c.k+k+L+w w @.+ * ",
"v w F+G+k+H+I+8 8 !+J+B.B.m+w w i + + + + + + + + + + + + + + + + + + + + + + + + + + + + + + + + + + i w w m+B.B.K+8 c.k+k+L+w w @.+ * ",
"h #.s o+i+M+h+++c+N+O+P+P+Q+w w i + + + + + + + + + + + + + + + + + + + + + + + + + + + + + + + + + + i w w Q+P+P+R+/+E.i+i+S+#.#.M + * ",
"+ M s s ` T+'.U+V+W+X+Y+Y+Z+w w i + + + + + + + + + + + + + + + + + + + + + + + + + + + + + + + + + + i w w Z+Y+Y+`+r G+/+v s #.v.+ + * ",
"+ @.w w 5. @.@+@+@+@@@#@#@$@w w i + + + + + + + + + + + + + + + + + + + + + + + + + + + + + + + + + + i w w $@#@#@@@+@%@,.Y w L M + + * ",
"+ @.w w &@<+ @)+)+)+*@=@=@-@w w i + + + + + + + + + + + + + + + + + + + + + + + + + + + + + + + + + + i w w -@=@=@*@)+;@>@,@w L M + + * ",
"+ @.w w w '@p 8 8 8 )@!@!@~@w w i + + + + + + + + + + + + + + + + + + + + + + + + + + + + + + + + + + i w w ~@!@!@)@8 {@w w w L M + + * ",
"+ #.L L L [+V+]@I I l+B.B.m+w w i + + + + + + + + + + + + + + + + + + + + + + + + + + + + + + + + + + i w w m+B.B.^@]@/@L L L y+t + + * ",
"+ v.t t t M s+ .(@[+`+_@_@:@w w i + + + + + + + + + + + + + + + + + + + + + + + + + + + + + + + + + + i w w :@_@_@<@v #.t t t t + + + * ",
"i ` 0+0+d.'.'.[@}@{@|@X.X.1@w w i + + + + + + + + + + + + + + + + + + + + + + + + + + + + + + + + + + i w w 1@X.X.2@3@'.C+g+0+4@v <.+ * ",
"v 5@j+j+[@,.,.,.,.,.6@X.X.1@w w i + + + + + + + + + + + + + + + + + + + + + + + + + + + + + + + + + + i w w 1@X.X.7@,.,.I ).j+g+u.@.+ * ",
"v w w w L+k+k+k+k+'.7@X.X.1@w w i + + + + + + + + + + + + + + + + + + + + + + + + + + + + + + + + + + i w w 1@X.X.8@k+k+).[+w w w @.+ * ",
"v w w w L+k+k+k+k+'.7@X.X.1@w w i + + + + + + + + + + + + + + + + + + + + + + + + + + + + + + + + + + i w w 1@X.X.8@k+k+).[+w w w @.+ * ",
"s +.+.+.` 9@9@a+g+T+8+X.X.1@w w i + + + + + + + + + + + + + + + + + + + + + + + + + + + + + + + + + + i w w 1@X.X.0@/+9@h+o++.+.+.h + * ",
"+ t M M M h ..L u.(@a@X.X.1@w w i + + + + + + + + + + + + + + + + + + + + + + + + + + + + + + + + + + i w w 1@X.X.b@x+#.M M M M + + + * ",
"+ s z+z+z+:+d.h+J c@d@X.X.1@w w i + + + + + + + + + + + + + + + + + + + + + + + + + + + + + + + + + + i w w 1@X.X.a@L+a+z+z+z+v e@+ + * ",
"+ @.w w w [+).>@f@k+8@X.X.1@w w i + + + + + + + + + + + + + + + + + + + + + + + + + + + + + + + + + + i w w 1@X.X.a@~+c+w w w L M + + * ",
"+ @.w w w [+).>@f@k+8@X.X.1@w w i + + + + + + + + + + + + + + + + + + + + + + + + + + + + + + + + + + i w w 1@X.X.a@~+c+w w w L M + + * ",
"+ @.w w w [+).>@f@k+8@X.X.1@w w i + + + + + + + + + + + + + + + + + + + + + + + + + + + + + + + + + + i w w 1@X.X.a@~+c+w w w L M + + * ",
"+ M #.#.#.x+h+F+F+J g@X.X.1@w w i + + + + + + + + + + + + + + + + + + + + + + + + + + + + + + + + + + i w w 1@X.X.b@h@` #.#.#.<.v.+ + * ",
"` ` ` ` h+a+/+c+i@i@2@X.X.1@w w i + + + + + + + + + + + + + + + + + + + + + + + + + + + + + + + + + + i w w 1@X.X..+L+/+!.Z ` ` ` ` j@* ",
"k+k+k+k+]@G k@c.8 !+`+X.X.1@w w i + + + + + + + + + + + + + + + + + + + + + + + + + + + + + + + + + + i w w 1@X.X.l@m@m@I+H+k+k+k+k+g+* ",
"k+k+k+k+]@G k@c.8 !+`+X.X.1@w w i + + + + + + + + + + + + + + + + + + + + + + + + + + + + + + + + + + i w w 1@X.X.l@m@m@I+H+k+k+k+k+g+* ",
"n@n@n@n@a+T+h+g+^+d.o@X.X.1@w w i + + + + + + + + + + + + + + + + + + + + + + + + + + + + + + + + + + i w w 1@X.X..+p@p@~+9@n@n@n@n@q@* ",
"+ + + + + + + + + + r@X.X.1@w w i + + + + + + + + + + + + + + + + + + + + + + + + + + + + + + + + + + i w w 1@X.X.r@+ + + + + + + + + * ",
"+ + + + + + + + + + r@X.X.1@w w i + + + + + + + + + + + + + + + + + + + + + + + + + + + + + + + + + + i w w 1@X.X.r@+ + + + + + + + + * ",
"+ + + + + + + + + + r@X.X.1@w w i + + + + + + + + + + + + + + + + + + + + + + + + + + + + + + + + + + i w w 1@X.X.r@+ + + + + + + + + * ",
"s s s s s s s s s u 8+X.X.1@w w i + + + + + + + + + + + + + + + + + + + + + + + + + + + + + + + + + + i w w 1@X.X.s@s s s s s s s s h * ",
"w w w w w w w w w t@u@X.X.1@w w i + + + + + + + + + + + + + + + + + + + + + + + + + + + + + + + + + + i w w 1@X.X.b@w w w w w w w w 9+* ",
"<.<.<.<.<.<.<.<.<.s v@X.X.6+w w i + + + + + + + + + + + + + + + + + + + + + + + + + + + + + + + + + + i w w 6+X.X.s@<.<.<.<.<.<.<.<.h * ",
"+ + + + + + + + + + w@x@x@y@w w i + + + + + + + + + + + + + + + + + + + + + + + + + + + + + + + + + + i w w y@x@x@w@+ + + + + + + + + * ",
"                    z@w w w w w i + + + + + + + + + + + + + + + + + + + + + + + + + + + + + + + + + + i w w w w w z@                  @ "};
