/* XPM */
static char * exit2_xpm[] = {
"68 68 541 2",
"  	c #707070",
". 	c #525252",
"+ 	c #141412",
"@ 	c #737372",
"# 	c #2A3440",
"$ 	c #3F4F63",
"% 	c #4A5D76",
"& 	c #4E627B",
"* 	c #20201F",
"= 	c #1A1E22",
"- 	c #242B35",
"; 	c #44556B",
"> 	c #647D9D",
", 	c #7491B7",
"' 	c #7998BF",
") 	c #425368",
"! 	c #6A85A7",
"~ 	c #6D89AD",
"{ 	c #7491B6",
"] 	c #7896BD",
"^ 	c #313D4C",
"/ 	c #516681",
"( 	c #526781",
"_ 	c #627B9B",
": 	c #7593B9",
"< 	c #6F8BAE",
"[ 	c #6781A2",
"} 	c #637C9C",
"| 	c #627A99",
"1 	c #252D37",
"2 	c #4E627C",
"3 	c #7997BE",
"4 	c #7897BE",
"5 	c #7795BB",
"6 	c #6C87AA",
"7 	c #5A708D",
"8 	c #435266",
"9 	c #333C47",
"0 	c #2B3037",
"a 	c #586F8B",
"b 	c #708DB2",
"c 	c #7390B5",
"d 	c #657FA0",
"e 	c #556A85",
"f 	c #47576C",
"g 	c #3B4757",
"h 	c #323B46",
"i 	c #2D333C",
"j 	c #151615",
"k 	c #161818",
"l 	c #28313C",
"m 	c #6984A6",
"n 	c #5B728F",
"o 	c #4C5E76",
"p 	c #3C4859",
"q 	c #303842",
"r 	c #2A2F36",
"s 	c #252A2F",
"t 	c #24282D",
"u 	c #161717",
"v 	c #141513",
"w 	c #171819",
"x 	c #181A1C",
"y 	c #191C1E",
"z 	c #252D36",
"A 	c #3F4E62",
"B 	c #5E7694",
"C 	c #6E8AAE",
"D 	c #7593B8",
"E 	c #51647D",
"F 	c #333D49",
"G 	c #292E34",
"H 	c #292D34",
"I 	c #292D33",
"J 	c #272B31",
"K 	c #1C2022",
"L 	c #181B1D",
"M 	c #161616",
"N 	c #151514",
"O 	c #222324",
"P 	c #46586E",
"Q 	c #5A718E",
"R 	c #607896",
"S 	c #5E7593",
"T 	c #4A5C72",
"U 	c #394453",
"V 	c #2D333B",
"W 	c #262B30",
"X 	c #1D2023",
"Y 	c #1A1D1E",
"Z 	c #1A1B1C",
"` 	c #191B1B",
" .	c #161716",
"..	c #161817",
"+.	c #242627",
"@.	c #29323D",
"#.	c #576D89",
"$.	c #607897",
"%.	c #566B86",
"&.	c #48596E",
"*.	c #333C48",
"=.	c #2E343D",
"-.	c #282D34",
";.	c #23272C",
">.	c #22252A",
",.	c #1E2023",
"'.	c #1E2227",
").	c #374455",
"!.	c #5C7391",
"~.	c #5F7695",
"{.	c #5B718E",
"].	c #46576C",
"^.	c #292E35",
"/.	c #23282D",
"(.	c #181B1C",
"_.	c #141413",
":.	c #17181A",
"<.	c #18191C",
"[.	c #17191B",
"}.	c #2B343E",
"|.	c #425265",
"1.	c #5D7492",
"2.	c #596F8B",
"3.	c #425164",
"4.	c #353F4C",
"5.	c #2D323A",
"6.	c #22262A",
"7.	c #1A1C1E",
"8.	c #151616",
"9.	c #1F242D",
"0.	c #222833",
"a.	c #212630",
"b.	c #181A1B",
"c.	c #3E4D60",
"d.	c #556984",
"e.	c #576C87",
"f.	c #35404D",
"g.	c #282D33",
"h.	c #212428",
"i.	c #1B1D23",
"j.	c #1C2027",
"k.	c #1B1F25",
"l.	c #161718",
"m.	c #262F39",
"n.	c #323E4D",
"o.	c #4F637C",
"p.	c #4E6179",
"q.	c #2F353F",
"r.	c #23262B",
"s.	c #17191C",
"t.	c #181A1E",
"u.	c #181A1D",
"v.	c #151515",
"w.	c #212222",
"x.	c #425266",
"y.	c #3D4A5A",
"z.	c #3C4857",
"A.	c #4E6178",
"B.	c #5C7390",
"C.	c #4A5B71",
"D.	c #313943",
"E.	c #2B3138",
"F.	c #22262B",
"G.	c #191C1D",
"H.	c #20242E",
"I.	c #232834",
"J.	c #212731",
"K.	c #50647E",
"L.	c #3E4C5D",
"M.	c #46566A",
"N.	c #586B83",
"O.	c #56687E",
"P.	c #5B708B",
"Q.	c #1B1E20",
"R.	c #161617",
"S.	c #242A36",
"T.	c #5A6E87",
"U.	c #5A6E88",
"V.	c #637A98",
"W.	c #576B84",
"X.	c #586D89",
"Y.	c #425063",
"Z.	c #5C7290",
"`.	c #4D6078",
" +	c #4C5F76",
".+	c #475668",
"++	c #465363",
"@+	c #414E5E",
"#+	c #3C4959",
"$+	c #262A30",
"%+	c #455569",
"&+	c #48586B",
"*+	c #4C5E75",
"=+	c #4C5C71",
"-+	c #394554",
";+	c #384453",
">+	c #353E48",
",+	c #343C45",
"'+	c #37414D",
")+	c #2D353F",
"!+	c #1E2124",
"~+	c #1F232C",
"{+	c #2E3F48",
"]+	c #344752",
"^+	c #31434D",
"/+	c #1D2529",
"(+	c #363F4B",
"_+	c #353F4D",
":+	c #32363C",
"<+	c #353E49",
"[+	c #272D36",
"}+	c #1C1F26",
"|+	c #20252E",
"1+	c #181B1E",
"2+	c #181C1D",
"3+	c #2F414A",
"4+	c #354954",
"5+	c #32454F",
"6+	c #1E262A",
"7+	c #374250",
"8+	c #303741",
"9+	c #2F353D",
"0+	c #2E343C",
"a+	c #202326",
"b+	c #242B37",
"c+	c #232934",
"d+	c #2F363E",
"e+	c #2F363F",
"f+	c #181A1A",
"g+	c #20242D",
"h+	c #191B1E",
"i+	c #222831",
"j+	c #30424C",
"k+	c #354853",
"l+	c #1E2529",
"m+	c #1A1D22",
"n+	c #2C2F34",
"o+	c #1C1F22",
"p+	c #1B1E23",
"q+	c #262F3A",
"r+	c #364B56",
"s+	c #3B535E",
"t+	c #384E59",
"u+	c #202A2E",
"v+	c #1D2028",
"w+	c #171919",
"x+	c #292F35",
"y+	c #282E34",
"z+	c #1A1D23",
"A+	c #242935",
"B+	c #262E39",
"C+	c #292F36",
"D+	c #1A1C21",
"E+	c #1D2429",
"F+	c #354A54",
"G+	c #2A323A",
"H+	c #36404B",
"I+	c #293038",
"J+	c #191E1F",
"K+	c #344953",
"L+	c #191B1D",
"M+	c #2E3743",
"N+	c #3C4858",
"O+	c #2D3540",
"P+	c #212730",
"Q+	c #1B1F24",
"R+	c #1A1F21",
"S+	c #374F5A",
"T+	c #3E5966",
"U+	c #3B5460",
"V+	c #212D32",
"W+	c #171A1B",
"X+	c #191A1B",
"Y+	c #1F2224",
"Z+	c #1F2225",
"`+	c #202427",
" @	c #202428",
".@	c #3F4B5A",
"+@	c #506175",
"@@	c #3A4654",
"#@	c #2D3D46",
"$@	c #232F34",
"%@	c #1F2A30",
"&@	c #4B7386",
"*@	c #558398",
"=@	c #517C8F",
"-@	c #2B404A",
";@	c #3E4A59",
">@	c #1D2022",
",@	c #1A1C1D",
"'@	c #212528",
")@	c #222529",
"!@	c #24282C",
"~@	c #445162",
"{@	c #3E4A5A",
"]@	c #2A3840",
"^@	c #212B30",
"/@	c #1D272C",
"(@	c #466A7B",
"_@	c #50798C",
":@	c #4B7284",
"<@	c #283B44",
"[@	c #435060",
"}@	c #23272B",
"|@	c #161615",
"1@	c #222931",
"2@	c #27313C",
"3@	c #1C2026",
"4@	c #1A2022",
"5@	c #39525D",
"6@	c #405C6A",
"7@	c #3D5764",
"8@	c #222E33",
"9@	c #2E3F47",
"0@	c #374D58",
"a@	c #242F35",
"b@	c #1F2B30",
"c@	c #4C7588",
"d@	c #57859A",
"e@	c #527D92",
"f@	c #2B414B",
"g@	c #191B1C",
"h@	c #1E2022",
"i@	c #435161",
"j@	c #30444C",
"k@	c #263339",
"l@	c #202E34",
"m@	c #517D92",
"n@	c #5C8EA5",
"o@	c #57869C",
"p@	c #2E4550",
"q@	c #424F5F",
"r@	c #1C1E20",
"s@	c #171717",
"t@	c #171818",
"u@	c #1C2023",
"v@	c #1D2024",
"w@	c #435061",
"x@	c #31444D",
"y@	c #27343B",
"z@	c #1A1E21",
"A@	c #27373F",
"B@	c #527E93",
"C@	c #2F4752",
"D@	c #1B2023",
"E@	c #18191A",
"F@	c #17191A",
"G@	c #212427",
"H@	c #222629",
"I@	c #24272C",
"J@	c #465465",
"K@	c #334651",
"L@	c #2C3A44",
"M@	c #2B3842",
"N@	c #374D57",
"O@	c #558297",
"P@	c #57879D",
"Q@	c #344B5A",
"R@	c #2D3D47",
"S@	c #1A1E20",
"T@	c #262A2F",
"U@	c #2B3036",
"V@	c #2C3138",
"W@	c #475566",
"X@	c #191C20",
"Y@	c #232935",
"Z@	c #2D3B46",
"`@	c #2E3C47",
" #	c #58879D",
".#	c #354C5B",
"+#	c #31414C",
"@#	c #455263",
"##	c #1F2326",
"$#	c #39525F",
"%#	c #436371",
"&#	c #2F424D",
"*#	c #2A3740",
"=#	c #364B55",
"-#	c #3A535E",
";#	c #558296",
">#	c #344B59",
",#	c #2C3B45",
"'#	c #161719",
")#	c #486F81",
"!#	c #59899F",
"~#	c #375461",
"{#	c #181C1E",
"]#	c #1C2225",
"^#	c #25353C",
"/#	c #527E92",
"(#	c #2F4652",
"_#	c #191D1F",
":#	c #1B1D1E",
"<#	c #1F2226",
"[#	c #212429",
"}#	c #3A4553",
"|#	c #475669",
"1#	c #343F4B",
"2#	c #3E5C6A",
"3#	c #4C7283",
"4#	c #2F454F",
"5#	c #374351",
"6#	c #1C1E21",
"7#	c #1B1D1F",
"8#	c #202327",
"9#	c #252A30",
"0#	c #262B31",
"a#	c #262C31",
"b#	c #37424E",
"c#	c #414F60",
"d#	c #303A46",
"e#	c #38525F",
"f#	c #456575",
"g#	c #2B3E46",
"h#	c #25292F",
"i#	c #2C3239",
"j#	c #333A43",
"k#	c #333B44",
"l#	c #465464",
"m#	c #54667B",
"n#	c #3C4958",
"o#	c #497183",
"p#	c #5A8BA1",
"q#	c #375462",
"r#	c #30373F",
"s#	c #1E2125",
"t#	c #1B1F22",
"u#	c #2D333A",
"v#	c #3B4654",
"w#	c #465567",
"x#	c #333E4A",
"y#	c #385664",
"z#	c #1D2124",
"A#	c #1A1D20",
"B#	c #1E2225",
"C#	c #384350",
"D#	c #435162",
"E#	c #313B47",
"F#	c #282C32",
"G#	c #55677D",
"H#	c #3D4A59",
"I#	c #1B1E21",
"J#	c #37414E",
"K#	c #455365",
"L#	c #323D49",
"M#	c #25292E",
"N#	c #333D48",
"O#	c #2B333E",
"P#	c #253238",
"Q#	c #4D7689",
"R#	c #3A5867",
"S#	c #1F262C",
"T#	c #2C4049",
"U#	c #537F94",
"V#	c #304854",
"W#	c #20292F",
"X#	c #303945",
"Y#	c #24282E",
"Z#	c #343E4A",
"`#	c #3A515C",
" $	c #527C90",
".$	c #3D5B6B",
"+$	c #1A1D1F",
"@$	c #323B47",
"#$	c #303944",
"$$	c #1E272B",
"%$	c #2F424A",
"&$	c #4F798C",
"*$	c #3B5969",
"=$	c #26313A",
"-$	c #354C57",
";$	c #548195",
">$	c #334A57",
",$	c #28353E",
"'$	c #1E2123",
")$	c #2F3844",
"!$	c #2E3742",
"~$	c #171817",
"{$	c #2D3641",
"]$	c #2C3540",
"^$	c #23272A",
"/$	c #2F3843",
"($	c #151513",
"_$	c #1D2123",
":$	c #1C1F21",
"<$	c #21252A",
"[$	c #1F2125",
"}$	c #2A2E35",
"|$	c #25292D",
"1$	c #363F4C",
"2$	c #1C2427",
"3$	c #2B3C43",
"4$	c #4E788B",
"5$	c #3B5968",
"6$	c #232D34",
"7$	c #2C3D45",
"8$	c #324751",
"9$	c #538095",
"0$	c #57879C",
"a$	c #324956",
"b$	c #253138",
"c$	c #272B30",
"d$	c #1D1F21",
"e$	c #212529",
"f$	c #313A45",
"g$	c #1F2124",
"h$	c #1B1C1D",
"i$	c #1C2326",
"j$	c #2A3A41",
"k$	c #3B5868",
"l$	c #222C32",
"m$	c #2B3B42",
"n$	c #31464F",
"o$	c #538094",
"p$	c #314956",
"q$	c #242F36",
"r$	c #466B7C",
"s$	c #568499",
"t$	c #35505D",
"u$	c #4C7487",
"v$	c #517D91",
"w$	c #344A54",
"x$	c #3F5B68",
"y$	c #28383F",
"z$	c #38505B",
"A$	c #3C5662",
"B$	c #222D33",
"C$	c #1B1F23",
"D$	c #36414F",
"E$	c #2D3D45",
"F$	c #232E34",
"G$	c #30424B",
"H$	c #334751",
"I$	c #20262F",
"J$	c #262D39",
"K$	c #222933",
"L$	c #242B36",
"M$	c #20252A",
"N$	c #283039",
"O$	c #21262D",
"P$	c #535353",
"                    . + + + + + + + + + + + + + + + + + + + + + + + + + + + + + + + + + + + + + + + + + + + + + + .                   @ ",
"+ + + + + + + + + + + + + + + + + + + + + + + + + + # $ % & & & & & & & & & & % $ # + + + + + + + + + + + + + + + + + + + + + + + + + * ",
"+ + + + + + + + + + + + + + + + + + + + + + + = - - ; > , ' ' ' ' ' ' ' ' ' ' , > ; - - = + + + + + + + + + + + + + + + + + + + + + + * ",
"+ + + + + + + + + + + + + + + + + + + + + + + ) ! ! ~ { ] ' ' ' ' ' ' ' ' ' ' ] { ~ ! ! ) + + + + + + + + + + + + + + + + + + + + + + * ",
"+ + + + + + + + + + + + + + + + + + + + ^ / ( _ ' ' : < [ } | | | | | | | | } [ < : ' ' _ ( / ^ + + + + + + + + + + + + + + + + + + + * ",
"+ + + + + + + + + + + + + + + + + + + 1 2 3 ' 4 5 : 6 7 8 9 0 0 0 0 0 0 0 0 9 8 7 6 : 5 4 ' 3 2 1 + + + + + + + + + + + + + + + + + + * ",
"+ + + + + + + + + + + + + + + + + + + a b ' ' c d e f g h i 0 0 0 0 0 0 0 0 i h g f e d c ' ' b a + + + + + + + + + + + + + + + + + + * ",
"+ + + + + + + + + + j k k k k k k l ) m ' ' ! n o p q 0 0 0 r s t t t t s r 0 0 0 q p o n ! ' ' m ) l k k k k u v + + + + + + + + + + * ",
"w w w w w w w w w w x y y y y y z A B C D c E F 0 0 r G H I J K L L L L K J I H G r 0 0 F E c D C B A z y y y L j M w w w w w w w j N O ",
"y y y y y y y y y y y y y y y y P Q R } S T U V 0 0 W X Y Z `  .j j j j  .` Z Y X W 0 0 V U T S } R Q P y y y L j w y y y y y y y .. .+.",
"y y y y y y y y y y y y y y @.; #.$.$.%.&.*.=.-.;.>.,.k N + + + + + + + + + + N k ,.>.;.-.=.*.&.%.$.$.#.; @.y L j w y y y y y y y .. .+.",
"y y y y y y y y y y y y y '.).!.$.~.{.].F 0 ^./.(.j + _.:.<.[.N + + + + N [.<.:._.+ j (./.^.0 F ].{.~.$.!.).'.L j w y y y y y y y .. .+.",
"y y y y y y y y y y y y y }.|.1.$.2.3.4.5.0 6.7.N _.+ 8.9.0.a.<.+ + + + <.a.0.9.8.+ _.N 7.6.0 5.4.3.2.$.1.|.}.L j w y y y y y y y .. .+.",
"y y y y y y y y y y b.k k c.d.~.$.e.f.=.g.h.7. .+ + + N i.j.k.l.+ + + + l.k.j.i.N + + +  .7.h.g.=.f.e.$.~.d.c.u v w y y y y y y y u  .+.",
"8.8.8.8.8.8.8.8.8.8.m.n.n.o.$.$.n p.q.G r._.+ + + + + v s.t.u.v.+ + + + v.u.t.s.v + + + + + _.r.G q.p.n $.$.o.n.n.m.8.8.8.8.8.8.8.N v w.",
") ) x.y.z.z.z.z.z.z.A.B.B.B $.$.C.D.E.F.G.+ + + + + + 8.H.I.J.<.+ + + + <.J.I.H.8.+ + + + + + G.F.E.D.C.$.$.B B.B.K.L.L.) ) ) ) ) ) ) M.",
"$.$.~.N.O.O.O.O.O.O.P.$.$.$.$.$.f H F.Q. .+ + + + + + R.a.S.0.u.+ + + + u.0.S.a.R.+ + + + + +  .Q.F.H f $.$.$.$.$.$.T.U.$.$.$.$.$.$.$.V.",
"$.$.~.N.O.O.O.O.O.O.W.X.X.X.X.X.Y.J G.8.+ + + + + + + R.a.S.0.u.+ + + + u.0.S.a.R.+ + + + + + + 8.G.J Y.X.X.X.X.X.Z.T.U.$.$.$.$.$.$.$.V.",
"`.`. +.+++++++++++++@+#+#+#+#+#+9 $+ .+ + + + + + + + R.a.S.0.u.+ + + + u.0.S.a.R.+ + + + + + + +  .$+9 #+#+#+#+#+%+&+&+`.`.`.`.`.`.*+=+",
"-+-+;+>+,+,+,+,+,+,+'+-+-+-+-+-+)+!+N k.~+~+u.+ + + + (.{+]+^+/++ + + + /+^+]+{+(.+ + + + u.~+~+k.N !+)+-+-+-+-+-+-+(+(+-+-+-+-+-+-+_+:+",
"-+-+;+>+,+,+,+,+,+,+<+4.4.4.4.4.[+w _.}+|+|+1++ + + + 2+3+4+5+6++ + + + 6+5+4+3+2++ + + + 1+|+|+}+_.w [+4.4.4.4.4.7+(+(+-+-+-+-+-+-+_+:+",
"q q 8+9+0+0+0+0+0+0+5.0 0 0 0 0 a++ + + _._.+ + + + + R.a.b+c+u.+ + + + u.c+b+a.R.+ + + + + _._.+ + + a+0 0 0 0 0 =.d+d+q q q q q q e+:+",
"t t t t t t t t t t h.,.,.,.,.,.f++ + }+g+g+t.h+g+g+g+i+j+k+5+l+m+g+g+m+l+5+k+j+i+g+g+g+h+t.g+g+}++ + f+,.,.,.,.,.h.t t t t t t t t t n+",
"v v v v v v v v v v o+;.;.o+u u N + + ~+S.S.m+p+S.S.S.q+r+s+t+u+v+S.S.v+u+t+s+r+q+S.S.S.p+m+S.S.~++ + N u u o+;.;.o+v v v v v v v _.+ * ",
"w+(.(.(.(.(.(.(.(.(.x+,+,+y+y y k + + ~+S.S.m+z+A+A+A+B+r+s+t+u+j.A+A+j.u+t+s+r+B+A+A+A+z+m+S.S.~++ + k y y y+,+,+x+(.(.(.(.(.(.(. .+ * ",
"b.y y y y y y y y y C+,+,+y+y y k + + ~+S.S.m+l.D+D+D+E+F+s+t+u+:.D+D+:.u+t+s+F+E+D+D+D+l.m+S.S.~++ + k y y y+,+,+C+y y y y y y y ..+ * ",
"w+(.(.(.(.(.y y y y G+H+H+I+y y k + + ~+S.S.m++ + + + J+K+s+t+u++ + + + u+t+s+K+J++ + + + m+S.S.~++ + k y y I+H+H+G+y L+(.(.(.(.(. .+ * ",
"v v v v v  .G.y y y M+N+N+O+y y k + + P+q+q+Q++ + + + R+S+T+U+V++ + + + V+U+T+S+R++ + + + Q+q+q+P++ + k y y O+N+N+M+y W+v v v v v _.+ * ",
"+ X+Y+Y+Y+Z+`+`+`+ @.@+@+@@@y y k + + #@r+r+$@+ + + + %@&@*@=@-@+ + + + -@=@*@&@%@+ + + + $@r+r+#@+ + k y y @@+@+@;@`+a+Y+Y+Y+>@j + + * ",
"+ ,@'@'@'@)@!@!@!@t ~@O.O.{@y y k + + ]@5+5+^@+ + + + /@(@_@:@<@+ + + + <@:@_@(@/@+ + + + ^@5+5+]@+ + k y y {@O.O.[@!@}@'@'@'@Z+|@+ + * ",
"+ ..y y y o+}@!@!@t ~@O.O.{@y y k + + 1@2@2@3@+ + + + 4@5@6@7@8@+ + + + 8@7@6@5@4@+ + + + 3@2@2@1@+ + k y y {@O.O.[@!@ @y y y (.N + + * ",
"+ ..y y y o+}@!@!@t ~@O.O.{@y y k + + 9@0@0@a@+ + + + b@c@d@e@f@+ + + + f@e@d@c@b@+ + + + a@0@0@9@+ + k y y {@O.O.[@!@ @y y y (.N + + * ",
"+ j w+w+w+g@h@Z+a+`+i@O.O.{@y y k + + j@s+s+k@+ + + + l@m@n@o@p@+ + + + p@o@n@m@l@+ + + + k@s+s+j@+ + k y y {@O.O.q@Y+r@w+w+w+k v + + * ",
"N N j s@t@t@X+Q.u@v@w@O.O.{@y y k v.[.x@s+s+y@z@6+6+6+A@B@n@o@C@D@6+6+D@C@o@n@B@A@6+6+6+z@y@s+s+x@[.v.k y y {@O.O.@+7.E@t@t@ .N N v + * ",
"F@L 7.G@H@I@g.H G ^.J@O.O.{@y y k t.J.K@s+s+L@M@N@N@N@U+O@n@P@Q@R@N@N@R@Q@P@n@O@U+N@N@N@M@L@s+s+K@J.t.k y y {@O.O.~@H W H@H@!+L L u + * ",
"b.y S@6.!@T@U@0 0 V@W@O.O.{@y y k X@Y@]+s+s+Z@`@s+s+s+T+*@n@ #.#+#s+s++#.# #n@*@T+s+s+s+`@Z@s+s+]+Y@X@k y y {@O.O.@#0 I !@!@##y y ..+ * ",
"b.y S@6.!@T@U@0 0 V@W@O.O.{@y y k t.a.$#%#%#&#*#=#=#=#-#;#n@P@>#,#=#=#,#>#P@n@;#-#=#=#=#*#&#%#%#$#a.t.k y y {@O.O.@#0 I !@!@##y y ..+ * ",
"b.y S@6.!@T@U@0 0 V@W@O.O.{@y y k N '#)#!#!#~#{#]#]#]#^#/#n@o@(#_#]#]#_#(#o@n@/#^#]#]#]#{#~#!#!#)#'#N k y y {@O.O.@#0 I !@!@##y y ..+ * ",
"j  .u g@,@:#>@<# @[#}#|#|#1#y y k + + 2#3#3#4#+ + + + l@m@n@o@p@+ + + + p@o@n@m@l@+ + + + 4#3#3#2#+ + k y y 1#|#|#5#!+6#,@,@f+ . .N + * ",
"+ N u u 7#8#t 9#0#a#b#c#c#d#y y k + + e#f#f#g#+ + + + l@m@n@o@p@+ + + + p@o@n@m@l@+ + + + g#f#f#e#+ + k y y d#c#c#f.h#6.!+b.u  ._.+ + * ",
"+ ..y y ;.i#j#k#k#k#l#m#m#n#y y k + + o#p#p#q#+ + + + l@m@n@o@p@+ + + + p@o@n@m@l@+ + + + q#p#p#o#+ + k y y n#m#m#l#k#r#G s#y (.N + + * ",
"+ ..y y t#F.i#u#u#u#v#w#w#x#y y k + + &@n@n@y#+ + + + l@m@n@o@p@+ + + + p@o@n@m@l@+ + + + y#n@n@&@+ + k y y x#w#w#v#u#-.z#A#y (.N + + * ",
"+ ..y y y B#r 0 0 0 C#D#D#E#y y k + + &@n@n@y#+ + + + l@m@n@o@p@+ + + + p@o@n@m@l@+ + + + y#n@n@&@+ + k y y E#D#D#C#0 $+y y y (.N + + * ",
"+  .(.(.(.o+0#F#g.g.i@G#G#H#y y k + + &@n@n@y#+ + + + l@m@n@o@p@+ + + + p@o@n@m@l@+ + + + y#n@n@&@+ + k y y H#G#G#w@F#r.(.(.(.F@v + + * ",
"+ _.v v v N s@7.I#o+J#K#K#L#y y k + + &@n@n@y#+ + + + l@m@n@o@p@+ + + + p@o@n@m@l@+ + + + y#n@n@&@+ + k y y L#K#K#4.b. .v v v v + + + * ",
"k 7#Y+Y+)@t t M#s $+N#-+-+O#y y k R+P#Q#n@n@R#S#k@k@k@T#U#n@o@V#W#k@k@W#V#o@n@U#T#k@k@k@S#R#n@n@Q#P#R+k y y O#-+-+X#Y#t I@a+Y+,.b.8.+ * ",
"b.K '@'@M#G G G G G Z#-+-+O#y y k $@`# $n@n@.$`@s+s+s+T+*@n@ #.#+#s+s++#.# #n@*@T+s+s+s+`@.$n@n@ $`#$@k y y O#-+-+h G G g.}@'@a++$..+ * ",
"b.y y y ##!@!@!@!@t @$-+-+O#y y k $@`# $n@n@.$`@s+s+s+T+*@n@ #.#+#s+s++#.# #n@*@T+s+s+s+`@.$n@n@ $`#$@k y y O#-+-+#$!@!@}@o+y y y ..+ * ",
"b.y y y ##!@!@!@!@t @$-+-+O#y y k $$%$&$n@n@*$=$j@j@j@-$;$n@P@>$,$j@j@,$>$P@n@;$-$j@j@j@=$*$n@n@&$%$$$k y y O#-+-+#$!@!@}@o+y y y ..+ * ",
"u w+w+w+7#'$'$Z+a+8#)$-+-+O#y y k + + &@n@n@y#+ + + + l@m@n@o@p@+ + + + p@o@n@m@l@+ + + + y#n@n@&@+ + k y y O#-+-+!$!+'$>@g@w+w+w+j + * ",
"+ v N N N j ~$(.+$I#{$-+-+O#y y k + + &@n@n@y#+ + + + l@m@n@o@p@+ + + + p@o@n@m@l@+ + + + y#n@n@&@+ + k y y O#-+-+]$E@ .N N N N + + + * ",
"+ u L L L Q.)@>@X ^$/$-+-+O#y y k + + &@n@n@y#+ + + + l@m@n@o@p@+ + + + p@o@n@m@l@+ + + + y#n@n@&@+ + k y y O#-+-+]$##Z+L L L b.($+ + * ",
"+ ..y y y o+}@z#_$!@#$-+-+O#y y k + + &@n@n@y#+ + + + l@m@n@o@p@+ + + + p@o@n@m@l@+ + + + y#n@n@&@+ + k y y O#-+-+]$h. @y y y (.N + + * ",
"+ ..y y y o+}@z#_$!@#$-+-+O#y y k + + &@n@n@y#+ + + + l@m@n@o@p@+ + + + p@o@n@m@l@+ + + + y#n@n@&@+ + k y y O#-+-+]$h. @y y y (.N + + * ",
"+ ..y y y o+}@z#_$!@#$-+-+O#y y k + + &@n@n@y#+ + + + l@m@n@o@p@+ + + + p@o@n@m@l@+ + + + y#n@n@&@+ + k y y O#-+-+]$h. @y y y (.N + + * ",
"+ N  . . .E@>@S@S@X {$-+-+O#y y k + + &@n@n@y#+ + + + l@m@n@o@p@+ + + + p@o@n@m@l@+ + + + y#n@n@&@+ + k y y O#-+-+]$:$7# . . .8._.+ + * ",
"7#7#7#7#>@Z+!+ @<$<$X#-+-+O#y y k + + &@n@n@y#+ + + + l@m@n@o@p@+ + + + p@o@n@m@l@+ + + + y#n@n@&@+ + k y y O#-+-+/$##!+[$r@7#7#7#7#` * ",
"!@!@!@!@F#}$|$I 0 V@1$-+-+O#y y k 2$3$4$n@n@5$6$7$7$7$8$9$n@0$a$b$7$7$b$a$0$n@9$8$7$7$7$6$5$n@n@4$3$2$k y y O#-+-+9 c$c$U@T@!@!@!@!@a+* ",
"!@!@!@!@F#}$|$I 0 V@1$-+-+O#y y k $@`# $n@n@.$`@s+s+s+T+*@n@ #.#+#s+s++#.# #n@*@T+s+s+s+`@.$n@n@ $`#$@k y y O#-+-+9 c$c$U@T@!@!@!@!@a+* ",
"d$d$d$d$Z+8#>@a+e$)@f$-+-+O#y y k $@`# $n@n@.$`@s+s+s+T+*@n@ #.#+#s+s++#.# #n@*@T+s+s+s+`@.$n@n@ $`#$@k y y O#-+-+/$g$g$h.'$d$d$d$d$h$* ",
"+ + + + + + + + + + O#-+-+O#y y k i$j$4$n@n@k$l$m$m$m$n$o$n@0$p$q$m$m$q$p$0$n@o$n$m$m$m$l$k$n@n@4$j$i$k y y O#-+-+O#+ + + + + + + + + * ",
"+ + + + + + + + + + O#-+-+O#y y k + + r$s$s$t$+ + + + b@u$s$v$-@+ + + + -@v$s$u$b@+ + + + t$s$s$r$+ + k y y O#-+-+O#+ + + + + + + + + * ",
"+ + + + + + + + + + O#-+-+O#y y k + + w$x$x$y$+ + + + 4@z$x$A$B$+ + + + B$A$x$z$4@+ + + + y$x$x$w$+ + k y y O#-+-+O#+ + + + + + + + + * ",
"u u u u u u u u u w )$-+-+O#y y k + + j@s+s+k@+ + + + J+K+s+t+u++ + + + u+t+s+K+J++ + + + k@s+s+j@+ + k y y O#-+-+}.u u u u u u u u j * ",
"y y y y y y y y y C$D$-+-+O#y y k + + E$r+r+F$+ + + + 2+G$r+H$6++ + + + 6+H$r+G$2++ + + + F$r+r+E$+ + k y y O#-+-+]$y y y y y y y y W+* ",
"8.8.8.8.8.8.8.8.8.u M+-+-+O#y y k + + I$J$J$Q++ + + + u K$J$L$h++ + + + h+L$J$K$u + + + + Q+J$J$I$+ + k y y O#-+-+}.8.8.8.8.8.8.8.8.j * ",
"+ + + + + + + + + + M$N$N$O$y y k + + ~+S.S.m++ + + + R.a.S.0.u.+ + + + u.0.S.a.R.+ + + + m+S.S.~++ + k y y O$N$N$M$+ + + + + + + + + * ",
"                    P$y y y y y k + + ~+S.S.m++ + + + R.a.S.0.u.+ + + + u.0.S.a.R.+ + + + m+S.S.~++ + k y y y y y P$                  @ "};
