/* XPM */
static char * exit_xpm[] = {
"68 68 498 2",
"  	c #707070",
". 	c #595959",
"+ 	c #141412",
"@ 	c #737372",
"# 	c #222931",
"$ 	c #333F4E",
"% 	c #3B4A5D",
"& 	c #3E4E62",
"* 	c #20201F",
"= 	c #3B495B",
"- 	c #5D7593",
"; 	c #6E8AAE",
"> 	c #7492B7",
", 	c #394759",
"' 	c #607897",
") 	c #607998",
"! 	c #6680A1",
"~ 	c #708DB1",
"{ 	c #7795BB",
"] 	c #7998BF",
"^ 	c #272F3A",
"/ 	c #435469",
"( 	c #45566D",
"_ 	c #59708C",
": 	c #7997BE",
"< 	c #728FB4",
"[ 	c #6E89AD",
"} 	c #6B86A8",
"| 	c #6A85A7",
"1 	c #405065",
"2 	c #7491B7",
"3 	c #7796BC",
"4 	c #7896BD",
"5 	c #718EB2",
"6 	c #607896",
"7 	c #485A6F",
"8 	c #384351",
"9 	c #303742",
"0 	c #4D617A",
"a 	c #7592B8",
"b 	c #6A84A7",
"c 	c #5D7492",
"d 	c #50637C",
"e 	c #425165",
"f 	c #36404E",
"g 	c #2E353E",
"h 	c #2B3037",
"i 	c #151514",
"j 	c #161717",
"k 	c #21272E",
"l 	c #384657",
"m 	c #647D9E",
"n 	c #6F8CAF",
"o 	c #637B9B",
"p 	c #536781",
"q 	c #404E61",
"r 	c #313A45",
"s 	c #2B2F36",
"t 	c #272C32",
"u 	c #262A30",
"v 	c #151616",
"w 	c #171819",
"x 	c #181A1B",
"y 	c #191C1E",
"z 	c #1B1F23",
"A 	c #323E4E",
"B 	c #5B728F",
"C 	c #6F8BAE",
"D 	c #7897BE",
"E 	c #7897BD",
"F 	c #586D89",
"G 	c #353F4C",
"H 	c #2B3036",
"I 	c #292E34",
"J 	c #1E2125",
"K 	c #181A1C",
"L 	c #141513",
"M 	c #161616",
"N 	c #151615",
"O 	c #222324",
"P 	c #3E4D61",
"Q 	c #556B86",
"R 	c #5E7695",
"S 	c #657E9E",
"T 	c #637C9C",
"U 	c #546882",
"V 	c #3F4D5F",
"W 	c #1F2327",
"X 	c #1D2023",
"Y 	c #1D1F21",
"Z 	c #1C1E20",
"` 	c #171919",
" .	c #161716",
"..	c #17191A",
"+.	c #161817",
"@.	c #242627",
"#.	c #21282F",
"$.	c #3C4A5D",
"%.	c #526781",
"&.	c #596F8C",
"*.	c #4D5F77",
"=.	c #37424F",
"-.	c #2F363F",
";.	c #292E35",
">.	c #25292F",
",.	c #24282D",
"'.	c #202327",
").	c #1B1E22",
"!.	c #2D3744",
"~.	c #586E8B",
"{.	c #607796",
"].	c #5E7594",
"^.	c #4B5D74",
"/.	c #2C3239",
"(.	c #2A2F36",
"_.	c #252A2F",
":.	c #161412",
"<.	c #161413",
"[.	c #151412",
"}.	c #272F38",
"|.	c #3C495A",
"1.	c #5A708D",
"2.	c #5B7290",
"3.	c #495A70",
"4.	c #394554",
"5.	c #2E343D",
"6.	c #2B3038",
"7.	c #1C1F21",
"8.	c #211616",
"9.	c #241717",
"0.	c #1E1615",
"a.	c #181B1C",
"b.	c #374455",
"c.	c #50647D",
"d.	c #3B4757",
"e.	c #23272C",
"f.	c #1C1E21",
"g.	c #1C1514",
"h.	c #1F1615",
"i.	c #261717",
"j.	c #2A1B1A",
"k.	c #2D1F1C",
"l.	c #271B19",
"m.	c #161818",
"n.	c #141413",
"o.	c #1E242A",
"p.	c #29323D",
"q.	c #485A71",
"r.	c #546983",
"s.	c #343D49",
"t.	c #25292E",
"u.	c #181513",
"v.	c #251817",
"w.	c #2A1A19",
"x.	c #281918",
"y.	c #2D1E1C",
"z.	c #332520",
"A.	c #2E201C",
"B.	c #281818",
"C.	c #212222",
"D.	c #425368",
"E.	c #425266",
"F.	c #3D4A5A",
"G.	c #3C4857",
"H.	c #49596F",
"I.	c #586E8A",
"J.	c #5C7390",
"K.	c #4F627B",
"L.	c #37414F",
"M.	c #2D333B",
"N.	c #1B1E20",
"O.	c #1A1514",
"P.	c #251717",
"Q.	c #31231F",
"R.	c #31231E",
"S.	c #2B1B1A",
"T.	c #4C5E76",
"U.	c #3E4C5D",
"V.	c #46566A",
"W.	c #5F7695",
"X.	c #586B83",
"Y.	c #56687E",
"Z.	c #5A6F89",
"`.	c #4B5C73",
" +	c #2A2E35",
".+	c #24282E",
"++	c #251918",
"@+	c #2E1F1C",
"#+	c #2B1C1A",
"$+	c #5A6E87",
"%+	c #5A6E88",
"&+	c #637A98",
"*+	c #586B84",
"=+	c #47576C",
"-+	c #282D33",
";+	c #1B1E21",
">+	c #191513",
",+	c #231716",
"'+	c #2C1D1B",
")+	c #352820",
"!+	c #2F211D",
"~+	c #5E7493",
"{+	c #4D6078",
"]+	c #4C5F76",
"^+	c #475668",
"/+	c #465363",
"(+	c #435162",
"_+	c #3F4E60",
":+	c #36414E",
"<+	c #282C32",
"[+	c #1A1513",
"}+	c #271818",
"|+	c #31241C",
"1+	c #3C3022",
"2+	c #34261E",
"3+	c #48596F",
"4+	c #48586B",
"5+	c #4C5E75",
"6+	c #4C5C71",
"7+	c #384453",
"8+	c #353E48",
"9+	c #343C45",
"0+	c #36404B",
"a+	c #2F3843",
"b+	c #2E1F1B",
"c+	c #392C21",
"d+	c #382B21",
"e+	c #2D1F1B",
"f+	c #32251D",
"g+	c #3D3122",
"h+	c #372A20",
"i+	c #2F201D",
"j+	c #394553",
"k+	c #363F4B",
"l+	c #353F4D",
"m+	c #32363C",
"n+	c #353E49",
"o+	c #2A313B",
"p+	c #151513",
"q+	c #231917",
"r+	c #291919",
"s+	c #2F201B",
"t+	c #3B2E21",
"u+	c #3B2E22",
"v+	c #3A2E21",
"w+	c #2E201B",
"x+	c #35261E",
"y+	c #433424",
"z+	c #3C2E22",
"A+	c #303842",
"B+	c #303741",
"C+	c #2F353D",
"D+	c #2E343C",
"E+	c #22262B",
"F+	c #281E1A",
"G+	c #322420",
"H+	c #342620",
"I+	c #3D2B20",
"J+	c #513C2A",
"K+	c #453325",
"L+	c #2E363F",
"M+	c #2F363E",
"N+	c #22262A",
"O+	c #1F2225",
"P+	c #1A1B1D",
"Q+	c #171513",
"R+	c #201615",
"S+	c #2C1F1C",
"T+	c #2D1E1B",
"U+	c #392D21",
"V+	c #3E2C21",
"W+	c #523D2A",
"X+	c #453326",
"Y+	c #2C2F34",
"Z+	c #1A1C1E",
"`+	c #212529",
" @	c #1C1F22",
".@	c #1A1614",
"+@	c #291C1A",
"@@	c #30221E",
"#@	c #2F221B",
"$@	c #2F211B",
"%@	c #262B31",
"&@	c #2A3037",
"*@	c #1D1815",
"=@	c #30231F",
"-@	c #262C32",
";@	c #36261E",
">@	c #4C3927",
",@	c #4C3928",
"'@	c #4B3927",
")@	c #392921",
"!@	c #412F23",
"~@	c #272D35",
"{@	c #2B333B",
"]@	c #1B191A",
"^@	c #231B17",
"/@	c #34281F",
"(@	c #372A21",
"_@	c #39271F",
":@	c #3D2D23",
"<@	c #423124",
"[@	c #191B1D",
"}@	c #191C1D",
"|@	c #2A323C",
"1@	c #3B4756",
"2@	c #2F3844",
"3@	c #211A1B",
"4@	c #2D1E1A",
"5@	c #3B2F21",
"6@	c #31231C",
"7@	c #171A1B",
"8@	c #191A1B",
"9@	c #1F2224",
"0@	c #202427",
"a@	c #202428",
"b@	c #3A4553",
"c@	c #4F6075",
"d@	c #3E4B5A",
"e@	c #362921",
"f@	c #342720",
"g@	c #384451",
"h@	c #202326",
"i@	c #1D2022",
"j@	c #1A1C1D",
"k@	c #212528",
"l@	c #222529",
"m@	c #24282C",
"n@	c #3F4C5B",
"o@	c #435161",
"p@	c #30201B",
"q@	c #443424",
"r@	c #473626",
"s@	c #36271E",
"t@	c #34231D",
"u@	c #3F2E23",
"v@	c #2E1E1B",
"w@	c #3E4A58",
"x@	c #23272B",
"y@	c #161615",
"z@	c #33221C",
"A@	c #4E3A28",
"B@	c #39281F",
"C@	c #402F23",
"D@	c #3D2C22",
"E@	c #191B1C",
"F@	c #1E2022",
"G@	c #3E4B59",
"H@	c #413024",
"I@	c #3E2E23",
"J@	c #171717",
"K@	c #171818",
"L@	c #1C2023",
"M@	c #1D2024",
"N@	c #3E4A59",
"O@	c #18191A",
"P@	c #181B1D",
"Q@	c #212427",
"R@	c #222629",
"S@	c #24272C",
"T@	c #292D34",
"U@	c #424F5E",
"V@	c #3F4C5A",
"W@	c #262B30",
"X@	c #1E2124",
"Y@	c #1A1E20",
"Z@	c #262A2F",
"`@	c #2C3138",
" #	c #43505F",
".#	c #404C5B",
"+#	c #292D33",
"@#	c #1F2326",
"##	c #1B1D1E",
"$#	c #1F2226",
"%#	c #212429",
"&#	c #37414D",
"*#	c #374351",
"=#	c #333E4A",
"-#	c #181A1A",
";#	c #1B1D1F",
">#	c #252A30",
",#	c #262C31",
"'#	c #353F4B",
")#	c #425062",
"!#	c #343F4C",
"~#	c #3C2D23",
"{#	c #4D3A28",
"]#	c #3B2C22",
"^#	c #333D49",
"/#	c #333A43",
"(#	c #333B44",
"_#	c #55677C",
":#	c #425060",
"<#	c #372921",
"[#	c #3E3122",
"}#	c #3E3222",
"|#	c #30373F",
"1#	c #1B1F22",
"2#	c #2D333A",
"3#	c #38424F",
"4#	c #455466",
"5#	c #36414F",
"6#	c #3C2C22",
"7#	c #4A3827",
"8#	c #3B2B22",
"9#	c #282D34",
"0#	c #1D2124",
"a#	c #1A1D20",
"b#	c #1E2225",
"c#	c #36404D",
"d#	c #445264",
"e#	c #35404E",
"f#	c #31211C",
"g#	c #493626",
"h#	c #3F2F23",
"i#	c #425061",
"j#	c #382A21",
"k#	c #3F4B5A",
"l#	c #23262B",
"m#	c #323C47",
"n#	c #435263",
"o#	c #35404D",
"p#	c #493726",
"q#	c #4C3A28",
"r#	c #2F3944",
"s#	c #323B46",
"t#	c #2E3742",
"u#	c #483626",
"v#	c #3D2E23",
"w#	c #413124",
"x#	c #2E3741",
"y#	c #1E2023",
"z#	c #1C2022",
"A#	c #333C48",
"B#	c #303843",
"C#	c #1A1D1F",
"D#	c #1E2123",
"E#	c #2D353F",
"F#	c #2C343D",
"G#	c #171817",
"H#	c #2A323B",
"I#	c #29313A",
"J#	c #23272A",
"K#	c #29313B",
"L#	c #1D2123",
"M#	c #212428",
"N#	c #21252A",
"O#	c #2C343F",
"P#	c #1F2125",
"Q#	c #191B1B",
"R#	c #25292D",
"S#	c #353E4A",
"T#	c #313944",
"U#	c #272B30",
"V#	c #34271F",
"W#	c #34261F",
"X#	c #362920",
"Y#	c #2F3741",
"Z#	c #30221C",
"`#	c #2C343E",
" $	c #1F2124",
".$	c #1B1C1D",
"+$	c #272E37",
"@$	c #32241F",
"#$	c #3A2D21",
"$$	c #2B1C1B",
"%$	c #32241D",
"&$	c #34271E",
"*$	c #2D3540",
"=$	c #322520",
"-$	c #251E1D",
";$	c #2A211E",
">$	c #30221D",
",$	c #282F39",
"'$	c #221F1F",
")$	c #26201F",
"!$	c #2C201E",
"~$	c #231A1B",
"{$	c #2A323D",
"]$	c #374251",
"^$	c #2C3540",
"/$	c #2C1E1C",
"($	c #2B1D1B",
"_$	c #29211F",
":$	c #262D36",
"<$	c #232930",
"[$	c #1F2429",
"}$	c #271F1E",
"|$	c #251E1E",
"1$	c #5A5A5A",
"2$	c #1E1B1C",
"3$	c #231B1C",
"4$	c #28201F",
"5$	c #201E1E",
"6$	c #1F1E1E",
"7$	c #1E1D1E",
"8$	c #211E1E",
"9$	c #231F1F",
"                    . + + + + + + + + + + + + + + + + + + + + + + + + + + + + + + + + + + + + + + + + + + + + + + .                   @ ",
"+ + + + + + + + + + + + + + + + + + + + + + + + + + # $ % & & & & & & & & & & % $ # + + + + + + + + + + + + + + + + + + + + + + + + + * ",
"+ + + + + + + + + + + + + + + + + + + + + + + + + + = - ; > > > > > > > > > > ; - = + + + + + + + + + + + + + + + + + + + + + + + + + * ",
"+ + + + + + + + + + + + + + + + + + + + + + + , ' ) ! ~ { ] ] ] ] ] ] ] ] ] ] { ~ ! ) ' , + + + + + + + + + + + + + + + + + + + + + + * ",
"+ + + + + + + + + + + + + + + + + + + + ^ / ( _ : ] { < [ } | | | | | | | | } [ < { ] : _ ( / ^ + + + + + + + + + + + + + + + + + + + * ",
"+ + + + + + + + + + + + + + + + + + + + 1 2 3 4 ] ] 5 6 7 8 9 9 9 9 9 9 9 9 8 7 6 5 ] ] 4 3 2 1 + + + + + + + + + + + + + + + + + + + * ",
"+ + + + + + + + + + + + + + + + + + + 0 | 4 ] a b c d e f g h h h h h h h h g f e d c b a ] 4 | 0 + + + + + + + + + + + + + + + + + + * ",
"+ + + + + + + + + + i j j j j j j k l m ] ] n o p q r h h h s t u u u u t s h h h r q p o n ] ] m l k j j j j v + + + + + + + + + + + * ",
"w w w w w w w w w w x y y y y y z A B C D E F G h h h h H H I J y y y y J I H H h h h h G F E D C B A z y y y K L M w w w w w w w N i O ",
"y y y y y y y y y y y y y y y y P Q R S T U V g h h t W X Y Z `  . . . .` Z Y X W t h h g V U T S R Q P y y y K L ..y y y y y y y +. .@.",
"y y y y y y y y y y y y y y #.$.%.' ' &.*.=.-.;.>.,.'...i + + + + + + + + + + i ..'.,.>.;.-.=.*.&.' ' %.$.#.y K L ..y y y y y y y +. .@.",
"y y y y y y y y y y y y y ).!.~.' {.].^.G /.(._.y  .+ + :.<.<.<.[.+ + [.<.<.<.:.+ +  .y _.(./.G ^.].{.' ~.!.).K L ..y y y y y y y +. .@.",
"y y y y y y y y y y y y y }.|.1.' 2.3.4.5.6.,.7.v L + [.8.9.9.9.0.+ + 0.9.9.9.8.[.+ L v 7.,.6.5.4.3.2.' 1.|.}.K L ..y y y y y y y +. .@.",
"y y y y y y y y y y a.` ` b.c.c ' _ d.-.I e.f.j + g.h.h.i.j.k.k.l.h.h.l.k.k.j.i.h.h.g.+ j f.e.I -.d._ ' c c.b.m.n...y y y y y y y j  .@.",
"v v v v v v v v v v o.p.p.q.' ' - r.s.(.t. .+ [.u.v.w.w.x.y.z.z.A.B.B.A.z.z.y.x.w.w.v.u.[.+  .t.(.s.r.- ' ' q.p.p.o.v v v v v v v i L C.",
"D.D.E.F.G.G.G.G.G.G.H.I.I.J.' ' K.L.M.,.N.i + O.P.A.Q.R.S.y.z.z.A.B.B.A.z.z.y.S.R.Q.A.P.O.+ i N.,.M.L.K.' ' J.I.I.T.U.U.D.D.D.D.D.D.D.V.",
"' ' W.X.Y.Y.Y.Y.Y.Y.Z.' ' ' ' ' `. +.+X j + g.++@+Q.z.z.#+y.z.z.A.B.B.A.z.z.y.#+z.z.Q.@+++g.+ j X .+ +`.' ' ' ' ' {.$+%+' ' ' ' ' ' ' &+",
"' ' W.X.Y.Y.Y.Y.Y.Y.*+1.1.1.1.1.=+-+;+j [.>+,+'+z.z.z.z.#+@+)+)+!+B.B.!+)+)+@+#+z.z.z.z.'+,+>+[.j ;+-+=+1.1.1.1.1.~+$+%+' ' ' ' ' ' ' &+",
"{+{+]+^+/+/+/+/+/+/+(+_+_+_+_+_+:+<+x n.[+P.}+'+z.z.z.z.#+|+1+1+2+B.B.2+1+1+|+#+z.z.z.z.'+}+P.[+n.x <+:+_+_+_+_+_+3+4+4+{+{+{+{+{+{+5+6+",
"4.4.7+8+9+9+9+9+9+9+0+4.4.4.4.4.a+'. .g.,+B.B.b+c+c+c+d+e+f+g+g+h+i+i+h+g+g+f+e+d+c+c+c+b+B.B.,+g. .'.a+4.4.4.4.4.j+k+k+4.4.4.4.4.4.l+m+",
"4.4.7+8+9+9+9+9+9+9+n+:+:+:+:+:+o+..p+q+#+#+r+s+t+u+u+v+w+x+y+y+z+z.z.z+y+y+x+w+v+u+u+t+s+r+#+#+q+p+..o+:+:+:+:+:+8 k+k+4.4.4.4.4.4.l+m+",
"A+A+B+C+D+D+D+D+D+D+M./././././.E+n.+ F+G+G+'+'+H+H+H+z.#+I+J+J+K+z.z.K+J+J+I+#+z.H+H+H+'+'+G+G+F++ n.E+/././././.L+M+M+A+A+A+A+A+A+-.m+",
",.,.,.,.,.,.,.,.,.,.N+O+O+O+O+O+P+Q+R+S+z.z.T+w+U+U+U+c+e+V+W+W+X+z.z.X+W+W+V+e+c+U+U+U+w+T+z.z.S+R+Q+P+O+O+O+O+O+N+,.,.,.,.,.,.,.,.,.Y+",
"L L L L L L L L L L Z+`+`+ @ . .i .@+@@@z.z.T+#@g+g+g+1+$@V+W+W+X+z.z.X+W+W+V+$@1+g+g+g+#@T+z.z.@@+@.@i  . . @`+`+Z+L L L L L L L n.+ * ",
"` a.a.a.a.a.a.a.a.a.%@9+9+&@y y w *@=@z.z.z.T+#@g+g+g+1+$@V+W+W+X+z.z.X+W+W+V+$@1+g+g+g+#@T+z.z.z.=@*@w y y &@9+9+%@a.a.a.a.a.a.a. .+ * ",
"x y y y y y y y y y -@9+9+&@y y w *@=@z.z.z.T+;@>@,@,@'@)@!@W+W+X+z.z.X+W+W+!@)@'@,@,@>@;@T+z.z.z.=@*@w y y &@9+9+-@y y y y y y y +.+ * ",
"` a.a.a.a.a.y y y y ~@k+k+{@y y ]@^@/@(@(@(@A._@W+W+W+J+:@<@W+W+X+z.z.X+W+W+<@:@J+W+W+W+_@A.(@(@(@/@^@]@y y {@k+k+~@y [@a.a.a.a.a. .+ * ",
"L L L L L  .}@y y y |@1@1@2@y y 3@4@5@g+g+g+|+_@W+W+W+J+:@<@W+W+X+z.z.X+W+W+<@:@J+W+W+W+_@6@g+g+g+v+4@3@y y 2@1@1@|@y 7@L L L L L n.+ * ",
"+ 8@9@9@9@O+0@0@0@a@b@c@c@d@y y 3@4@5@g+g+g+|+_@W+W+W+J+:@<@W+W+X+z.z.X+W+W+<@:@J+W+W+W+_@@+e@e@e@f@#+3@y y d@c@c@g@0@h@9@9@9@i@N + + * ",
"+ j@k@k@k@l@m@m@m@,.n@Y.Y.o@y y 3@p@q@r@r@r@s@_@W+W+W+J+:@<@W+W+X+z.z.X+W+W+<@:@J+W+W+W+_@t@<@<@<@u@v@3@y y o@Y.Y.w@m@x@k@k@k@O+y@+ + * ",
"+ +.y y y  @x@m@m@,.n@Y.Y.o@y y 3@z@A@W+W+W+I+B@W+W+W+J+:@<@W+W+X+z.z.X+W+W+<@:@J+W+W+W+B@I+W+W+W+A@z@3@y y o@Y.Y.w@m@a@y y y a.i + + * ",
"+ +.y y y  @x@m@m@,.n@Y.Y.o@y y 3@z@A@W+W+W+C@D@W+W+W+J+:@<@W+W+X+z.z.X+W+W+<@:@J+W+W+W+D@C@W+W+W+A@z@3@y y o@Y.Y.w@m@a@y y y a.i + + * ",
"+ N ` ` ` E@F@O+h@0@G@Y.Y.o@y y 3@z@A@W+W+W+H@I@W+W+W+J+:@<@W+W+X+z.z.X+W+W+<@:@J+W+W+W+I@H@W+W+W+A@z@3@y y o@Y.Y.G.9@Z ` ` ` m.L + + * ",
"i i N J@K@K@8@N.L@M@N@Y.Y.o@y y 3@z@A@W+W+W+H@I@W+W+W+J+:@<@W+W+X+z.z.X+W+W+<@:@J+W+W+W+I@H@W+W+W+A@z@3@y y o@Y.Y.1@Z+O@K@K@ .i i L + * ",
"..P@Z+Q@R@S@-+T@I ;.U@Y.Y.o@y y 3@z@A@W+W+W+H@I@W+W+W+J+:@<@W+W+X+z.z.X+W+W+<@:@J+W+W+W+I@H@W+W+W+A@z@3@y y o@Y.Y.V@T@W@R@R@X@P@P@j + * ",
"x y Y@N+m@Z@H h h `@ #Y.Y.o@y y 3@z@A@W+W+W+H@I@W+W+W+J+:@<@W+W+X+z.z.X+W+W+<@:@J+W+W+W+I@H@W+W+W+A@z@3@y y o@Y.Y..#h +#m@m@@#y y +.+ * ",
"x y Y@N+m@Z@H h h `@ #Y.Y.o@y y 3@z@A@W+W+W+H@I@W+W+W+J+:@<@W+W+X+z.z.X+W+W+<@:@J+W+W+W+I@H@W+W+W+A@z@3@y y o@Y.Y..#h +#m@m@@#y y +.+ * ",
"x y Y@N+m@Z@H h h `@ #Y.Y.o@y y 3@z@A@W+W+W+H@I@W+W+W+J+:@<@W+W+X+z.z.X+W+W+<@:@J+W+W+W+I@H@W+W+W+A@z@3@y y o@Y.Y..#h +#m@m@@#y y +.+ * ",
"N  .j E@j@##i@$#a@%#&#^+^+*#y y 3@z@A@W+W+W+H@I@W+W+W+J+:@<@W+W+X+z.z.X+W+W+<@:@J+W+W+W+I@H@W+W+W+A@z@3@y y *#^+^+=#X@f.j@j@-# . .i + * ",
"+ i j j ;#'.,.>#%@,#'#)#)#!#y y 3@z@A@W+W+W+H@~#{#{#{#,@]#<@W+W+X+z.z.X+W+W+<@]#,@{#{#{#~#H@W+W+W+A@z@3@y y !#)#)#^#>.N+X@x j  .n.+ + * ",
"+ +.y y e././#(#(#(# #_#_#:#y y 3@z@A@W+W+W+H@<#[#}#}#[#e@<@W+W+X+z.z.X+W+W+<@e@[#}#}#[#<#H@W+W+W+A@z@3@y y :#_#_# #(#|#I J y a.i + + * ",
"+ +.y y 1#E+/.2#2#2#3#4#4#5#y y 3@z@A@W+W+W+H@6#'@'@'@7#8#<@W+W+X+z.z.X+W+W+<@8#7#'@'@'@6#H@W+W+W+A@z@3@y y 5#4#4#3#2#9#0#a#y a.i + + * ",
"+ +.y y y b#(.h h h c#d#d#e#y y 3@f#g#,@,@,@I@6#,@,@,@'@]#h#,@,@<@z.z.<@,@,@h#]#'@,@,@,@6#I@,@,@,@g#f#3@y y e#d#d#c#h u y y y a.i + + * ",
"+  .a.a.a. @%@<+-+-+V@Y.Y.i#y y 3@4@5@g+g+g+(@e@g+g+g+g+e@j#g+g+c+z.z.c+g+g+j#e@g+g+g+g+e@(@g+g+g+5@4@3@y y i#Y.Y.k#<+l#a.a.a...L + + * ",
"+ n.L L L i J@Z+;+ @m#n#n#o#y y 3@f#p#q#q#q#I@e@g+g+g+g+e@h#q#q#<@z.z.<@q#q#h#e@g+g+g+g+e@I@q#q#q#p#f#3@y y o#n#n#r#x  .L L L L + + + * ",
"m.;#9@9@l@,.,.t._.u s#4.4.t#y y 3@f#u#'@'@'@v#e@g+g+g+g+e@I@'@'@w#z.z.w#'@'@I@e@g+g+g+g+e@v#'@'@'@u#f#3@y y t#4.4.x#.+,.S@h@9@y#x v + * ",
"x z#k@k@t.I I I I I A#4.4.t#y y 3@4@5@g+g+g+(@e@g+g+g+g+e@(@g+g+c+z.z.c+g+g+(@e@g+g+g+g+e@(@g+g+g+5@4@3@y y t#4.4.B#I I -+x@k@h@C#+.+ * ",
"x y y y @#m@m@m@m@,.B#4.4.t#y y 3@4@5@g+g+g+(@e@g+g+g+g+e@(@g+g+c+z.z.c+g+g+(@e@g+g+g+g+e@(@g+g+g+5@4@3@y y t#4.4.L+m@m@x@ @y y y +.+ * ",
"x y y y @#m@m@m@m@,.B#4.4.t#y y 3@4@5@g+g+g+(@e@g+g+g+g+e@(@g+g+c+z.z.c+g+g+(@e@g+g+g+g+e@(@g+g+g+5@4@3@y y t#4.4.L+m@m@x@ @y y y +.+ * ",
"j ` ` ` ;#D#D#O+h@'.E#4.4.t#y y 3@4@5@g+g+g+(@e@g+g+g+g+e@(@g+g+c+z.z.c+g+g+(@e@g+g+g+g+e@(@g+g+g+5@4@3@y y t#4.4.F#X@D#i@E@` ` ` N + * ",
"+ L i i i N G#a.C#;+H#4.4.t#y y 3@4@5@g+g+g+(@e@g+g+g+g+e@(@g+g+c+z.z.c+g+g+(@e@g+g+g+g+e@(@g+g+g+5@4@3@y y t#4.4.I#O@ .i i i i + + + * ",
"+ j P@P@P@N.l@i@X J#E#4.4.t#y y 3@4@5@g+g+g+(@e@g+g+g+g+e@(@g+g+c+z.z.c+g+g+(@e@g+g+g+g+e@(@g+g+g+5@4@3@y y t#4.4.K#@#O+P@P@P@x p++ + * ",
"+ +.y y y  @x@0#L#m@L+4.4.t#y y 3@4@5@g+g+g+(@e@g+g+g+g+e@(@g+g+c+z.z.c+g+g+(@e@g+g+g+g+e@(@g+g+g+5@4@3@y y t#4.4.K#M#a@y y y a.i + + * ",
"+ +.y y y  @x@0#L#m@L+4.4.t#y y 3@4@5@g+g+g+(@e@g+g+g+g+e@(@g+g+c+z.z.c+g+g+(@e@g+g+g+g+e@(@g+g+g+5@4@3@y y t#4.4.K#M#a@y y y a.i + + * ",
"+ +.y y y  @x@0#L#m@L+4.4.t#y y 3@4@5@g+g+g+(@e@g+g+g+g+e@(@g+g+c+z.z.c+g+g+(@e@g+g+g+g+e@(@g+g+g+5@4@3@y y t#4.4.K#M#a@y y y a.i + + * ",
"+ i  . . .O@i@Y@Y@X |@4.4.t#y y 3@4@5@g+g+g+(@e@g+g+g+g+e@(@g+g+c+z.z.c+g+g+(@e@g+g+g+g+e@(@g+g+g+5@4@3@y y t#4.4.I#7.;# . . .v n.+ + * ",
";#;#;#;#i@O+X@a@N#N#x#4.4.t#y y 3@4@5@g+g+g+(@e@g+g+g+g+e@(@g+g+c+z.z.c+g+g+(@e@g+g+g+g+e@(@g+g+g+5@4@3@y y t#4.4.O#@#X@P#Z ;#;#;#;#Q#* ",
"m@m@m@m@<+ +R#+#h `@S#4.4.t#y y 3@4@5@g+g+g+(@e@g+g+g+g+e@(@g+g+c+z.z.c+g+g+(@e@g+g+g+g+e@(@g+g+g+5@4@3@y y t#4.4.T#U#U#H Z@m@m@m@m@h@* ",
"m@m@m@m@<+ +R#+#h `@S#4.4.t#y y 3@4@5@g+g+g+)+V#g+g+g+1+W#X#g+g+c+z.z.c+g+g+X#W#1+g+g+g+V#)+g+g+g+5@4@3@y y t#4.4.T#U#U#H Z@m@m@m@m@h@* ",
"Y Y Y Y O+'.i@h@`+l@Y#4.4.t#y y 3@4@5@g+g+g+|+Z#g+g+g+1+$@f+g+g+c+z.z.c+g+g+f+$@1+g+g+g+Z#|+g+g+g+5@4@3@y y t#4.4.`# $ $M#D#Y Y Y Y .$* ",
"+ + + + + + + + + + +$4.4.t#y y 3@#+)+<#<#<#A.#@g+g+g+1+$@f+g+g+c+z.z.c+g+g+f+$@1+g+g+g+#@A.<#<#<#)+#+3@y y t#4.4.+$+ + + + + + + + + * ",
"+ + + + + + + + + + +$4.4.t#y y 3@j.@$z.z.z.T+w+#$#$#$c+b+f+g+g+h+!+!+h+g+g+f+b+c+#$#$#$w+T+z.z.z.@$j.3@y y t#4.4.+$+ + + + + + + + + * ",
"+ + + + + + + + + + +$4.4.t#y y 3@j.@$z.z.z.T+'+z.z.z.z.$$%$g+g+&$B.B.&$g+g+%$$$z.z.z.z.'+T+z.z.z.@$j.3@y y t#4.4.+$+ + + + + + + + + * ",
"j j j j j j j j j w *$4.4.t#y y 3@j.@$z.z.z.T+'+z.z.z.=$-$;$e@e@>$B.B.>$e@e@;$-$=$z.z.z.'+T+z.z.z.@$j.3@y y t#4.4.,$j j j j j j j j N * ",
"y y y y y y y y y z e#4.4.t#y y 3@j.@$z.z.z.T+'+z.z.z.=$'$)$z.z.!$~$~$!$z.z.)$'$=$z.z.z.'+T+z.z.z.@$j.3@y y t#4.4.I#y y y y y y y y 7@* ",
"v v v v v v v v v j {$]$]$^$y y 3@j.@$z.z.z./$($z.z.z.=$'$)$z.z._$y y _$z.z.)$'$=$z.z.z.($/$z.z.z.@$j.3@y y ^$]$]$:$v v v v v v v v N * ",
"+ + + + + + + + + + ;+<$<$[$y y 3@j.@$z.z.z.}$|$z.z.z.=$'$)$z.z._$y y _$z.z.)$'$=$z.z.z.|$}$z.z.z.@$j.3@y y [$<$<$;++ + + + + + + + + * ",
"                    1$y y y y y 2$3$4$_$_$_$5$6$_$_$_$_$7$8$_$_$9$y y 9$_$_$8$7$_$_$_$_$6$5$_$_$_$4$3$2$y y y y y 1$                  @ "};
