/* XPM */
static char * floor_xpm[] = {
"68 68 92 2",
"  	c #8D8C8B",
". 	c #6C6A69",
"+ 	c #201611",
"@ 	c #241812",
"# 	c #291B14",
"$ 	c #261913",
"% 	c #2E1E16",
"& 	c #221712",
"* 	c #251913",
"= 	c #281C15",
"- 	c #2C1F17",
"; 	c #332319",
"> 	c #392A1E",
", 	c #3A2A1E",
"' 	c #3D2E21",
") 	c #3E2F22",
"! 	c #271A13",
"~ 	c #2B1C15",
"{ 	c #302118",
"] 	c #38291D",
"^ 	c #3E2E22",
"/ 	c #3F2F23",
"( 	c #211611",
"_ 	c #211711",
": 	c #271A14",
"< 	c #2F1F17",
"[ 	c #302017",
"} 	c #302018",
"| 	c #2E2017",
"1 	c #36271C",
"2 	c #3B2B20",
"3 	c #3C2C21",
"4 	c #3A2B1F",
"5 	c #413125",
"6 	c #433326",
"7 	c #281B14",
"8 	c #2D1F17",
"9 	c #35261B",
"0 	c #392A1F",
"a 	c #3C2C20",
"b 	c #231712",
"c 	c #312219",
"d 	c #322219",
"e 	c #34241B",
"f 	c #3B2C1F",
"g 	c #2C1D15",
"h 	c #39291E",
"i 	c #403124",
"j 	c #413124",
"k 	c #423225",
"l 	c #231812",
"m 	c #2B1D15",
"n 	c #322319",
"o 	c #35251B",
"p 	c #36261C",
"q 	c #37281D",
"r 	c #3C2D20",
"s 	c #3C2D21",
"t 	c #2B1E16",
"u 	c #33241A",
"v 	c #3D2D21",
"w 	c #3B2C20",
"x 	c #403024",
"y 	c #3F3023",
"z 	c #3A2A1F",
"A 	c #37271C",
"B 	c #2E1F17",
"C 	c #3D2E22",
"D 	c #38291E",
"E 	c #34251B",
"F 	c #34241A",
"G 	c #3B2B1F",
"H 	c #312118",
"I 	c #38281D",
"J 	c #35251C",
"K 	c #33231A",
"L 	c #2B1D16",
"M 	c #37271D",
"N 	c #35261C",
"O 	c #2F2017",
"P 	c #312119",
"Q 	c #413225",
"R 	c #36281D",
"S 	c #3C2D22",
"T 	c #3E2F23",
"U 	c #221812",
"V 	c #231913",
"W 	c #251A14",
"X 	c #2C1E16",
"Y 	c #2A1D15",
"Z 	c #2F2219",
"` 	c #302319",
"  . . . . . . . . . . . . . . . . . . . . . . . . . . . . . . . . . . . . . . . . . . . . . . . . . . . . . . . . . . . . . . . . . .   ",
". + + + + @ # # # # # # # # # # # # # # # # # # # # # # # # # # # # # # # # # # # # # # # # # # # # # # # # # # # # # # # # @ + + + + . ",
". + + + + $ % % % % % % % % % % % % % % % % % % % % % % % % % % % % % % % % % % % % % % % % % % % % % % % % % % % % % % % % $ + + + + . ",
". + + + + $ % % % % % % % % % % % % % % % % % % % % % % % % % % % % % % % % % % % % % % % % % % % % % % % % % % % % % % % % $ + + + + . ",
". + + + + & * * * * * * * * * * * * * * * * * * * * * * * * * * * * * * * * * * * * * * * * * * * * * * * * * * * * * * * * & + + + + . ",
". @ $ $ $ = - - - - - - - - - - - - - - - - - - - - - - - - - - - - - - - - - - - - - - - - - - - - - - - - - - - - - - - - = $ $ $ @ . ",
". # % % % ; > > > > > > > > > > > > > > > > > > > > > > > > > > > > > > > > > > > > > > > > > > > > > > > > > > > > > > > > ; % % % # . ",
". # % % % ; > > > > > > > > > > > > > > > > > > > > > > > > > > > > > > > > > > > > > > > > > > > > > > > > > > > > > > > > ; % % % # . ",
". # % % % ; , ' ) ) ) ) ) ) ) ) ) ) ) ) ) ) ) ) ) ) ) ) ) ) ) ) ) ) ) ) ) ) ) ) ) ) ) ) ) ) ) ) ) ) ) ) ) ) ) ) ) ) ) ) ' , ; % % % # . ",
". ! ~ ~ ~ { ] ^ / / / / / / / / / / / / / / / / / / / / / / / / / / / / / / / / / / / / / / / / / / / / / / / / / / / / ^ ] { ~ ~ ~ ! . ",
". ( _ _ _ : < [ } } } } } } } } } } } } } } } } } } } } } } } } } } } } } } } } } } } } } } } } } } } } } } } } } } } } [ < : _ _ _ ( . ",
". $ # # # | 1 2 3 3 3 3 3 3 3 3 3 3 3 3 3 3 3 3 3 3 3 3 3 3 3 3 3 3 3 3 3 3 3 3 3 3 3 3 3 3 3 3 3 3 3 3 3 3 3 3 3 3 3 3 2 1 | # # # $ . ",
". # % % % ; 4 5 6 6 6 6 6 6 6 6 6 6 6 6 6 6 6 6 6 6 6 6 6 6 6 6 6 6 6 6 6 6 6 6 6 6 6 6 6 6 6 6 6 6 6 6 6 6 6 6 6 6 6 6 5 4 ; % % % # . ",
". # % % % ; 4 5 6 6 6 6 6 6 6 6 6 6 6 6 6 6 6 6 6 6 6 6 6 6 6 6 6 6 6 6 6 6 6 6 6 6 6 6 6 6 6 6 6 6 6 6 6 6 6 6 6 6 6 6 5 4 ; % % % # . ",
". # % % % ; 4 5 6 6 6 6 6 6 6 6 6 6 6 6 6 6 6 6 6 6 6 6 6 6 6 6 6 6 6 6 6 6 6 6 6 6 6 6 6 6 6 6 6 6 6 6 6 6 6 6 6 6 6 6 5 4 ; % % % # . ",
". * 7 7 7 8 9 0 2 a ) / / / / / / / / / / / / / / / / / / / / / / / / / / / / / / / / / / / / / / / / / / / / / / ) a 2 0 9 8 7 7 7 * . ",
". _ b b b 7 } c d e 4 f f f f f f f f f f f f f f f f f f f f f f f f f f f f f f f f f f f f f f f f f f f f f f 4 e d c } 7 b b b _ . ",
". : g g g c h / i j k k k k k k k k k k k k k k k k k k k k k k k k k k k k k k k k k k k k k k k k k k k k k k k k j i / h c g g g : . ",
". # % % % ; 4 5 6 6 6 6 6 6 6 6 6 6 6 6 6 6 6 6 6 6 6 6 6 6 6 6 6 6 6 6 6 6 6 6 6 6 6 6 6 6 6 6 6 6 6 6 6 6 6 6 6 6 6 6 5 4 ; % % % # . ",
". # % % % ; 4 5 6 6 6 6 6 6 6 6 6 6 6 6 6 6 6 6 6 6 6 6 6 6 6 6 6 6 6 6 6 6 6 6 6 6 6 6 6 6 6 6 6 6 6 6 6 6 6 6 6 6 6 6 5 4 ; % % % # . ",
". # % % % ; 4 5 6 6 6 6 6 6 6 6 6 6 6 6 6 6 6 6 6 6 6 6 6 6 6 6 6 6 6 6 6 6 6 6 6 6 6 6 6 6 6 6 6 6 6 6 6 6 6 6 6 6 6 6 5 4 ; % % % # . ",
". l * * * m n o p q r s s s s s s s s s s s s s s s s s s s s s s s s s s s s s s s s s s s s s s s s s s s s s s r q p o n m * * * l . ",
". @ $ $ $ t u 1 q h v ' ' ' ' ' ' ' ' ' ' ' ' ' ' w > > > > > > > > > > > > r a > s ' ' ' ' ' ' ' ' ' ' ' ' ' ' ' v h q 1 u t $ $ $ @ . ",
". # % % % ; 4 5 6 6 6 6 6 6 6 6 6 6 6 6 6 6 6 6 6 ) > > > > > > > > > > > > x y 4 j 6 6 6 6 6 6 6 6 6 6 6 6 6 6 6 6 6 6 5 4 ; % % % # . ",
". # % % % ; 4 5 6 6 6 6 6 6 6 6 6 6 6 6 6 6 6 6 6 ) > > > > > > > > > > > > x y 4 j 6 6 6 6 6 6 6 6 6 6 6 6 6 6 6 6 6 6 5 4 ; % % % # . ",
". # % % % ; 4 5 6 6 6 6 6 6 6 6 6 6 6 6 6 6 6 6 6 ) > > > > > > > > > > > > x y 4 j 6 6 6 6 6 6 6 6 6 6 6 6 6 6 6 6 6 6 5 4 ; % % % # . ",
". ! m m m { ] ^ / x j j j j j j j j j j j j i / / w q q q q q q q q q q q q v s ] ^ / / / i j j j j j j j j j j j j x / ^ ] { m m m ! . ",
". ( _ _ _ : < } } n > 4 4 4 4 4 4 4 4 4 4 4 1 } } [ < < < < < < < < < < < < [ [ < } } } } 1 4 4 4 4 4 4 4 4 4 4 4 > n } } < : _ _ _ ( . ",
". $ # # # | 1 2 3 v y y y y y y y y y y y y ^ 3 3 3 2 p 0 z 9 9 9 9 9 9 9 9 9 9 9 9 9 A w ^ y y y y y y y y y y y y v 3 2 1 | # # # $ . ",
". # % % % ; 4 5 6 6 6 6 6 6 6 6 6 6 6 6 6 6 6 6 6 6 j 4 y x > > > > > > > > > > > > > w k 6 6 6 6 6 6 6 6 6 6 6 6 6 6 6 5 4 ; % % % # . ",
". # % % % ; 4 5 6 6 6 6 6 6 6 6 6 6 6 6 6 6 6 6 6 6 j 4 y x > > > > > > > > > > > > > w k 6 6 6 6 6 6 6 6 6 6 6 6 6 6 6 5 4 ; % % % # . ",
". # % % % ; 4 5 6 6 6 6 6 6 6 6 6 6 6 6 6 6 6 6 6 6 j 4 y x > > > > > > > > > > > > > w k 6 6 6 6 6 6 6 6 6 6 6 6 6 6 6 5 4 ; % % % # . ",
". * 7 7 7 B 9 z 2 3 ) / / / / / / / / / / / C 2 2 2 z 9 D h E E E E E E E E E E E E E p 4 C / / / / / / / / / / / ) 3 2 z 9 B 7 7 7 * . ",
". _ & & & 7 [ c d F 4 G G G G G G G G G G G q d d H [ [ [ [ [ [ [ [ [ [ { d { H d d d d d q G G G G G G G G G G G 4 F d c [ 7 & & & _ . ",
". : g g g c D / i j k k k k k k k k k k k k 5 i i s I I I I I I I I I I 4 x G w i i i i i 5 k k k k k k k k k k k k j i / D c g g g : . ",
". # % % % ; 4 5 6 6 6 6 6 6 6 6 6 6 6 6 6 6 6 6 6 ) > > > > > > > > > > r 6 s ' 6 6 6 6 6 6 6 6 6 6 6 6 6 6 6 6 6 6 6 6 5 4 ; % % % # . ",
". # % % % ; 4 5 6 6 6 6 6 6 6 6 6 6 6 6 6 6 6 6 6 ) > > > > > > > > > > r 6 s ' 6 6 6 6 6 6 6 6 6 6 6 6 6 6 6 6 6 6 6 6 5 4 ; % % % # . ",
". # % % % ; 4 5 6 6 6 6 6 6 6 6 6 6 6 6 6 6 6 6 6 ) > > > > > > > > > > r 6 s ' 6 6 6 6 6 6 6 6 6 6 6 6 6 6 6 6 6 6 6 6 5 4 ; % % % # . ",
". l * * * m n J p q r s s s s s s s s s s s 4 p p e d d d d d d d d d d K p u u p p p p p 4 s s s s s s s s s s s r q p J n m * * * l . ",
". @ $ $ $ L K 1 M D v ' ' ' ' ' ' ' ' ' ' ' 2 M M M 1 K N p n n n n n n n n n n K 1 o u M 2 ' ' ' ' ' ' ' ' ' ' ' v D M 1 K L $ $ $ @ . ",
". # % % % ; 4 5 6 6 6 6 6 6 6 6 6 6 6 6 6 6 6 6 6 6 j 4 y x > > > > > > > > > > 4 j ) w k 6 6 6 6 6 6 6 6 6 6 6 6 6 6 6 5 4 ; % % % # . ",
". # % % % ; 4 5 6 6 6 6 6 6 6 6 6 6 6 6 6 6 6 6 6 6 j 4 y x > > > > > > > > > > 4 j ) w k 6 6 6 6 6 6 6 6 6 6 6 6 6 6 6 5 4 ; % % % # . ",
". # % % % ; 4 5 6 6 6 6 6 6 6 6 6 6 6 6 6 6 6 6 6 6 j 4 y x > > > > > > > > > > 4 j ) w k 6 6 6 6 6 6 6 6 6 6 6 6 6 6 6 5 4 ; % % % # . ",
". ! g g g { ] ^ y x j 5 5 5 5 5 5 5 5 5 5 5 i y y y ^ ] s v q q q q q q q q q q ] ^ w > / i 5 5 5 5 5 5 5 5 5 5 5 j x y ^ ] { g g g ! . ",
". ( & & & : < } { K > 4 4 4 4 4 4 4 4 4 4 4 1 { { { } < [ } < < < < < < < < < < < } [ O } 1 4 4 4 4 4 4 4 4 4 4 4 > K { } < : & & & ( . ",
". $ # # # | p 2 3 v / y y y y y y y y y y y ^ 3 3 3 3 3 3 3 3 3 3 3 3 3 3 3 3 3 3 3 3 3 3 ^ y y y y y y y y y y y / v 3 2 p | # # # $ . ",
". # % % % ; 4 5 6 6 6 6 6 6 6 6 6 6 6 6 6 6 6 6 6 6 6 6 6 6 6 6 6 6 6 6 6 6 6 6 6 6 6 6 6 6 6 6 6 6 6 6 6 6 6 6 6 6 6 6 5 4 ; % % % # . ",
". # % % % ; 4 5 6 6 6 6 6 6 6 6 6 6 6 6 6 6 6 6 6 6 6 6 6 6 6 6 6 6 6 6 6 6 6 6 6 6 6 6 6 6 6 6 6 6 6 6 6 6 6 6 6 6 6 6 5 4 ; % % % # . ",
". # % % % ; 4 5 6 6 6 6 6 6 6 6 6 6 6 6 6 6 6 6 6 6 6 6 6 6 6 6 6 6 6 6 6 6 6 6 6 6 6 6 6 6 6 6 6 6 6 6 6 6 6 6 6 6 6 6 5 4 ; % % % # . ",
". * # # # B 9 z 2 3 / / / / / / / / / / / / / / / / / / / / / / / / / / / / / / / / / / / / / / / / / / / / / / / / 3 2 z 9 B # # # * . ",
". _ & & & 7 [ P d F 4 G G G G G G G G G G G G G G G G G G G G G G G G G G G G G G G G G G G G G G G G G G G G G G 4 F d P [ 7 & & & _ . ",
". : g g g c D / x j Q k k k k k k k k k k k k k k k k k k k k k k k k k k k k k k k k k k k k k k k k k k k k k k Q j x / D c g g g : . ",
". # % % % ; 4 5 6 6 6 6 6 6 6 6 6 6 6 6 6 6 6 6 6 6 6 6 6 6 6 6 6 6 6 6 6 6 6 6 6 6 6 6 6 6 6 6 6 6 6 6 6 6 6 6 6 6 6 6 5 4 ; % % % # . ",
". # % % % ; 4 5 6 6 6 6 6 6 6 6 6 6 6 6 6 6 6 6 6 6 6 6 6 6 6 6 6 6 6 6 6 6 6 6 6 6 6 6 6 6 6 6 6 6 6 6 6 6 6 6 6 6 6 6 5 4 ; % % % # . ",
". # % % % ; 4 5 6 6 6 6 6 6 6 6 6 6 6 6 6 6 6 6 6 6 6 6 6 6 6 6 6 6 6 6 6 6 6 6 6 6 6 6 6 6 6 6 6 6 6 6 6 6 6 6 6 6 6 6 5 4 ; % % % # . ",
". l * * * m n N p q s v v v v v v v v v v v v v v v v v v v v v v v v v v v v v v v v v v v v v v v v v v v v v v s q p N n m * * * l . ",
". l $ $ $ L K p M D v ' ' ' ' ' ' ' ' ' ' ' ' ' ' ' ' ' ' ' ' ' ' ' ' ' ' ' ' ' ' ' ' ' ' ' ' ' ' ' ' ' ' ' ' ' ' v D M p K L $ $ $ l . ",
". # % % % ; 4 5 6 6 6 6 6 6 6 6 6 6 6 6 6 6 6 6 6 6 6 6 6 6 6 6 6 6 6 6 6 6 6 6 6 6 6 6 6 6 6 6 6 6 6 6 6 6 6 6 6 6 6 6 5 4 ; % % % # . ",
". # % % % ; 4 5 6 6 6 6 6 6 6 6 6 6 6 6 6 6 6 6 6 6 6 6 6 6 6 6 6 6 6 6 6 6 6 6 6 6 6 6 6 6 6 6 6 6 6 6 6 6 6 6 6 6 6 6 5 4 ; % % % # . ",
". # % % % ; 4 5 6 6 6 6 6 6 6 6 6 6 6 6 6 6 6 6 6 6 6 6 6 6 6 6 6 6 6 6 6 6 6 6 6 6 6 6 6 6 6 6 6 6 6 6 6 6 6 6 6 6 6 6 5 4 ; % % % # . ",
". ! g g g { R S T T y y y y y y y y y y y y y y y y y y y y y y y y y y y y y y y y y y y y y y y y y y y y y y y y T T S R { g g g ! . ",
". _ & & & U V W W = } { { { { { { { { { { { { { { { { { { { { { { { { { { { { { { { { { { { { { { { { { { { { { { } = W W V U & & & _ . ",
". + + + + @ # # # X E 9 9 9 9 9 9 9 9 9 9 9 9 9 9 9 9 9 9 9 9 9 9 9 9 9 9 9 9 9 9 9 9 9 9 9 9 9 9 9 9 9 9 9 9 9 9 E X # # # @ + + + + . ",
". + + + + $ % % % H ] > > > > > > > > > > > > > > > > > > > > > > > > > > > > > > > > > > > > > > > > > > > > > > ] H % % % $ + + + + . ",
". + + + + $ % % % H ] > > > > > > > > > > > > > > > > > > > > > > > > > > > > > > > > > > > > > > > > > > > > > > ] H % % % $ + + + + . ",
". + + + + $ % % % H ] > > > > > > > > > > > > > > > > > > > > > > > > > > > > > > > > > > > > > > > > > > > > > > ] H % % % $ + + + + . ",
". + + + + @ # # # Y Z ` ` ` ` ` ` ` ` ` ` ` ` ` ` ` ` ` ` ` ` ` ` ` ` ` ` ` ` ` ` ` ` ` ` ` ` ` ` ` ` ` ` ` ` ` ` Z Y # # # @ + + + + . ",
"  . . . . . . . . . . . . . . . . . . . . . . . . . . . . . . . . . . . . . . . . . . . . . . . . . . . . . . . . . . . . . . . . . .   "};
