/* XPM */
static char * player_xpm[] = {
"128 128 12 1",
" 	c None",
".	c #233219",
"+	c #5D8D38",
"@	c #77B845",
"#	c #3F5D27",
"$	c #141412",
"%	c #4B3720",
"&	c #ECCBAC",
"*	c #BD9168",
"=	c #825E3A",
"-	c #44280F",
";	c #70431C",
"                                                                                                                                ",
"                                                                                                                                ",
"                                                                                                                                ",
"                                                                                                                                ",
"                                                                                                                                ",
"                                                                                                                                ",
"                                                                                                                                ",
"                                                                                                                                ",
"                                                                                                                                ",
"                                                                                                                                ",
"                                                                                                                                ",
"                                                                                                                                ",
"                                                                                                                                ",
"                                                                                                                                ",
"                                                                                                                                ",
"                                                                                                                                ",
"                                                                                                                                ",
"                                                                                                                                ",
"                                                                                                                                ",
"                                                                                                                                ",
"                                                                                                                                ",
"                                                                                                                                ",
"                                                                                                                                ",
"                                                                                                                                ",
"                                                                                                                                ",
"                                                                                                                                ",
"                                                                                                                                ",
"                                                                                                                                ",
"                                                                                                                                ",
"                                                                                                                                ",
"                                                                                                                                ",
"                                                                                                                                ",
"                                                                                                                                ",
"                                                                                                                                ",
"                                                                                                                                ",
"                                                                                                                                ",
"                                                        ................                                                        ",
"                                                        ................                                                        ",
"                                                      ..++@@@@@@@@@@@@++..                                                      ",
"                                                      ..++@@@@@@@@@@@@++..                                                      ",
"                                                    ..##@@@@@@@@@@@@@@@@@@..                                                    ",
"                                                    ..##@@@@@@@@@@@@@@@@@@..                                                    ",
"                                                  ..####@@@@@@@@@@@@@@@@@@++..                                                  ",
"                                                  ..####@@@@@@@@@@@@@@@@@@++..                                                  ",
"                                          ..........####++@@@@@@@@@@@@@@@@##$$                                                  ",
"                                          ..........####++@@@@@@@@@@@@@@@@##$$                                                  ",
"                                          ..@@@@@@@@######++@@@@@@@@@@@@++##$$                                                  ",
"                                          ..@@@@@@@@######++@@@@@@@@@@@@++##$$                                                  ",
"                                            ..@@++++@@@@####++##$$$$....$$$$##                                                  ",
"                                            ..@@++++@@@@####++##$$$$....$$$$##                                                  ",
"                                              ..@@####++@@##++++$$$$####$$$$%%%%                                                ",
"                                              ..@@####++@@##++++$$$$####$$$$%%%%                                                ",
"                                                $$++##....++++++&&##++@@....&&%%                                                ",
"                                                $$++##....++++++&&##++@@....&&%%                                                ",
"                                                  $$......++@@&&&&##++@@....&&%%                                                ",
"                                                  $$......++@@&&&&##++@@....&&%%                                                ",
"                                                    $$....++++&&&&########&&&&%%                                                ",
"                                                    $$....++++&&&&########&&&&%%                                                ",
"                                                      $$$$..++&&&&##++++@@&&&&%%                                                ",
"                                                      $$$$..++&&&&##++++@@&&&&%%                                                ",
"                                                    $$$$$$$$..&&**##....++&&**%%                                                ",
"                                                    $$$$$$$$..&&**##....++&&**%%                                                ",
"                                                  ..++++##$$$$......$$$$....$$                                                  ",
"                                                  ..++++##$$$$......$$$$....$$                                                  ",
"                                                ..++++++++++++@@@@@@++@@@@$$$$                                                  ",
"                                                ..++++++++++++@@@@@@++@@@@$$$$                                                  ",
"                                                ..++++++++##@@@@@@@@@@@@@@$$$$                                                  ",
"                                                ..++++++++##@@@@@@@@@@@@@@$$$$                                                  ",
"                                                $$##++++####@@@@@@@@@@@@@@$$$$                                                  ",
"                                                $$##++++####@@@@@@@@@@@@@@$$$$                                                  ",
"                                                  $$$$......++@@@@@@++@@@@$$                                                    ",
"                                                  $$$$......++@@@@@@++@@@@$$                                                    ",
"                                                      $$$$$$..##########$$                                                      ",
"                                                      $$$$$$..##########$$                                                      ",
"                                                        $$$$$$........$$                                                        ",
"                                                        $$$$$$........$$                                                        ",
"                                                        $$======********$$                                                      ",
"                                                        $$======********$$                                                      ",
"                                                      $$------;;;;==;;==$$                                                      ",
"                                                      $$------;;;;==;;==$$                                                      ",
"                                                      $$------;;;;**;;**;;$$                                                    ",
"                                                      $$------;;;;**;;**;;$$                                                    ",
"                                                    $$--------;;;;**;;**;;$$                                                    ",
"                                                    $$--------;;;;**;;**;;$$                                                    ",
"                                                    $$--------;;;;;;;;;;;;--$$                                                  ",
"                                                    $$--------;;;;;;;;;;;;--$$                                                  ",
"                                                    $$$$$$$$$$$$$$$$$$$$$$$$$$                                                  ",
"                                                    $$$$$$$$$$$$$$$$$$$$$$$$$$                                                  ",
"                                                    $$--------$$    $$------$$                                                  ",
"                                                    $$--------$$    $$------$$                                                  ",
"                                                  $$--------$$      $$------$$                                                  ",
"                                                  $$--------$$      $$------$$                                                  ",
"                                                  $$------$$        $$--------$$                                                ",
"                                                  $$------$$        $$--------$$                                                ",
"                                                $$;;;;;;;;$$        $$--;;;;;;;;$$                                              ",
"                                                $$;;;;;;;;$$        $$--;;;;;;;;$$                                              ",
"                                                                                                                                ",
"                                                                                                                                ",
"                                                                                                                                ",
"                                                                                                                                ",
"                                                                                                                                ",
"                                                                                                                                ",
"                                                                                                                                ",
"                                                                                                                                ",
"                                                                                                                                ",
"                                                                                                                                ",
"                                                                                                                                ",
"                                                                                                                                ",
"                                                                                                                                ",
"                                                                                                                                ",
"                                                                                                                                ",
"                                                                                                                                ",
"                                                                                                                                ",
"                                                                                                                                ",
"                                                                                                                                ",
"                                                                                                                                ",
"                                                                                                                                ",
"                                                                                                                                ",
"                                                                                                                                ",
"                                                                                                                                ",
"                                                                                                                                ",
"                                                                                                                                ",
"                                                                                                                                ",
"                                                                                                                                ",
"                                                                                                                                ",
"                                                                                                                                ",
"                                                                                                                                ",
"                                                                                                                                "};
