/* XPM */
static char * wall_xpm[] = {
"68 68 297 2",
"  	c #707070",
". 	c #737372",
"+ 	c #141412",
"@ 	c #20201F",
"# 	c #171819",
"$ 	c #161818",
"% 	c #141513",
"& 	c #151616",
"* 	c #161716",
"= 	c #161717",
"- 	c #151615",
"; 	c #151514",
"> 	c #222324",
", 	c #191C1E",
"' 	c #181B1D",
") 	c #171919",
"! 	c #17191A",
"~ 	c #181A1C",
"{ 	c #161817",
"] 	c #242627",
"^ 	c #181A1B",
"/ 	c #141413",
"( 	c #212222",
"_ 	c #425368",
": 	c #425266",
"< 	c #3D4A5A",
"[ 	c #3C4857",
"} 	c #3F4D5F",
"| 	c #415165",
"1 	c #3C4959",
"2 	c #404E61",
"3 	c #404F62",
"4 	c #405063",
"5 	c #3E4C5E",
"6 	c #3D4B5B",
"7 	c #425267",
"8 	c #3E4C5D",
"9 	c #46566A",
"0 	c #607897",
"a 	c #5F7695",
"b 	c #586B83",
"c 	c #56687E",
"d 	c #5B708A",
"e 	c #5E7593",
"f 	c #576A81",
"g 	c #5C728D",
"h 	c #5D738F",
"i 	c #5D7490",
"j 	c #5A6F89",
"k 	c #596C85",
"l 	c #607796",
"m 	c #5A6E87",
"n 	c #5A6E88",
"o 	c #637A98",
"p 	c #4D6078",
"q 	c #4C5F76",
"r 	c #475668",
"s 	c #465363",
"t 	c #49596D",
"u 	c #4C5E75",
"v 	c #475566",
"w 	c #4A5B70",
"x 	c #4B5C71",
"y 	c #4B5C72",
"z 	c #4C5E74",
"A 	c #49596C",
"B 	c #485669",
"C 	c #4D5F77",
"D 	c #48586B",
"E 	c #4C5C71",
"F 	c #394554",
"G 	c #384453",
"H 	c #353E48",
"I 	c #343C45",
"J 	c #36404C",
"K 	c #384452",
"L 	c #353D47",
"M 	c #37414E",
"N 	c #37424F",
"O 	c #384350",
"P 	c #353E49",
"Q 	c #394553",
"R 	c #363F4B",
"S 	c #353F4D",
"T 	c #32363C",
"U 	c #303842",
"V 	c #303741",
"W 	c #2F353D",
"X 	c #2E343C",
"Y 	c #2F363F",
"Z 	c #2E353D",
"` 	c #2F3640",
" .	c #2F3740",
"..	c #303740",
"+.	c #2F353E",
"@.	c #2F363E",
"#.	c #24282D",
"$.	c #2C2F34",
"%.	c #161615",
"&.	c #151614",
"*.	c #181B1C",
"=.	c #1B1E20",
"-.	c #212528",
";.	c #1D2022",
">.	c #1A1D1F",
",.	c #212427",
"'.	c #1F2225",
").	c #1D2023",
"!.	c #24282C",
"~.	c #1C1F22",
"{.	c #23272B",
"].	c #222629",
"^.	c #22262A",
"/.	c #1E2124",
"(.	c #1B1F21",
"_.	c #222529",
":.	c #202326",
"<.	c #191B1D",
"[.	c #191C1D",
"}.	c #1A1D20",
"|.	c #171A1B",
"1.	c #191A1B",
"2.	c #1F2224",
"3.	c #202427",
"4.	c #202428",
"5.	c #1D2124",
"6.	c #2A3037",
"7.	c #2C323A",
"8.	c #282D33",
"9.	c #2B3239",
"0.	c #272C32",
"a.	c #252A2F",
"b.	c #22272C",
"c.	c #252B30",
"d.	c #1B1E21",
"e.	c #23282D",
"f.	c #1A1C1D",
"g.	c #292E35",
"h.	c #25292F",
"i.	c #22272B",
"j.	c #323942",
"k.	c #2E353C",
"l.	c #343B44",
"m.	c #2D333B",
"n.	c #2B3037",
"o.	c #282E34",
"p.	c #1F2326",
"q.	c #292E34",
"r.	c #272C31",
"s.	c #282C32",
"t.	c #323A42",
"u.	c #262B30",
"v.	c #2B3138",
"w.	c #25292E",
"x.	c #2A2F35",
"y.	c #191B1C",
"z.	c #1E2022",
"A.	c #262A2F",
"B.	c #2D333A",
"C.	c #2E343B",
"D.	c #2A2F36",
"E.	c #2D343B",
"F.	c #292F35",
"G.	c #282D32",
"H.	c #2A3036",
"I.	c #25292D",
"J.	c #1C1E20",
"K.	c #171717",
"L.	c #171818",
"M.	c #1C2023",
"N.	c #1D2024",
"O.	c #282D34",
"P.	c #272D33",
"Q.	c #1A1C1E",
"R.	c #18191A",
"S.	c #24272C",
"T.	c #292D34",
"U.	c #30373F",
"V.	c #2D343D",
"W.	c #36414E",
"X.	c #364250",
"Y.	c #343E4A",
"Z.	c #333B45",
"`.	c #343D48",
" +	c #1A1E20",
".+	c #2B3036",
"++	c #2C3138",
"@+	c #37414D",
"#+	c #292D33",
"$+	c #2C333A",
"%+	c #2A3138",
"&+	c #1B1D1E",
"*+	c #1F2226",
"=+	c #212429",
"-+	c #2C333B",
";+	c #2C333C",
">+	c #2C343D",
",+	c #2F3741",
"'+	c #1C1E21",
")+	c #181A1A",
"!+	c #1B1D1F",
"~+	c #202327",
"{+	c #252A30",
"]+	c #262B31",
"^+	c #262C31",
"/+	c #2D353F",
"(+	c #2E353F",
"_+	c #303843",
":+	c #313944",
"<+	c #2E343D",
"[+	c #2A3038",
"}+	c #23272C",
"|+	c #2C3239",
"1+	c #333A43",
"2+	c #333B44",
"3+	c #282E35",
"4+	c #36424F",
"5+	c #394453",
"6+	c #313A46",
"7+	c #313840",
"8+	c #1E2125",
"9+	c #1B1F22",
"0+	c #22262B",
"a+	c #272D32",
"b+	c #333C46",
"c+	c #384351",
"d+	c #1E2225",
"e+	c #343D46",
"f+	c #2D353E",
"g+	c #262A30",
"h+	c #272B30",
"i+	c #313841",
"j+	c #313942",
"k+	c #343E4B",
"l+	c #35404E",
"m+	c #23262B",
"n+	c #23262A",
"o+	c #252A2E",
"p+	c #313B47",
"q+	c #323C48",
"r+	c #323B46",
"s+	c #24282E",
"t+	c #1E2023",
"u+	c #1C2022",
"v+	c #2B3137",
"w+	c #293037",
"x+	c #353F4C",
"y+	c #37414F",
"z+	c #333B43",
"A+	c #1E2123",
"B+	c #1E2226",
"C+	c #293036",
"D+	c #2A3137",
"E+	c #24292E",
"F+	c #171817",
"G+	c #23272A",
"H+	c #212428",
"I+	c #151513",
"J+	c #1D2123",
"K+	c #1F2327",
"L+	c #202328",
"M+	c #1C1F21",
"N+	c #21252A",
"O+	c #262C33",
"P+	c #283039",
"Q+	c #29313A",
"R+	c #282F37",
"S+	c #1F2125",
"T+	c #191B1B",
"U+	c #2A2E35",
"V+	c #1D1F21",
"W+	c #212529",
"X+	c #2A323C",
"Y+	c #2B343E",
"Z+	c #2C353F",
"`+	c #2B333E",
" @	c #293039",
".@	c #1F2124",
"+@	c #1B1C1D",
"@@	c #22272E",
"#@	c #252B33",
"$@	c #262D35",
"%@	c #272E37",
"&@	c #252C34",
"*@	c #1E2227",
"=@	c #1B1F23",
"-@	c #323D4A",
";@	c #2A333D",
">@	c #1F2429",
",@	c #232930",
"'@	c #242B32",
")@	c #242A32",
"!@	c #22282F",
"~@	c #1C1F23",
"{@	c #717171",
"]@	c #717172",
"^@	c #707170",
"                                                                                                                                      . ",
"+ + + + + + + + + + + + + + + + + + + + + + + + + + + + + + + + + + + + + + + + + + + + + + + + + + + + + + + + + + + + + + + + + + + @ ",
"+ + + + + + + + + + + + + + + + + + + + + + + + + + + + + + + + + + + + + + + + + + + + + + + + + + + + + + + + + + + + + + + + + + + @ ",
"+ + + + + + + + + + + + + + + + + + + + + + + + + + + + + + + + + + + + + + + + + + + + + + + + + + + + + + + + + + + + + + + + + + + @ ",
"+ + + + + + + + + + + + + + + + + + + + + + + + + + + + + + + + + + + + + + + + + + + + + + + + + + + + + + + + + + + + + + + + + + + @ ",
"+ + + + + + + + + + + + + + + + + + + + + + + + + + + + + + + + + + + + + + + + + + + + + + + + + + + + + + + + + + + + + + + + + + + @ ",
"+ + + + + + + + + + + + + + + + + + + + + + + + + + + + + + + + + + + + + + + + + + + + + + + + + + + + + + + + + + + + + + + + + + + @ ",
"+ + + + + + + + + + + + + + + + + + + + + + + + + + + + + + + + + + + + + + + + + + + + + + + + + + + + + + + + + + + + + + + + + + + @ ",
"# # # # # # # # # # # # # # # # # # # $ % & # # # # # # # # # # # # # # # # # # # # * + = # # # # # # # # # # # # # # # # # # # # - ; > ",
", , , , , , , , , , , , , , , , , , , ' - ) , , , , , , , , , , , , , , , , , , , , ! % ~ , , , , , , , , , , , , , , , , , , , , { * ] ",
", , , , , , , , , , , , , , , , , , , ' - ) , , , , , , , , , , , , , , , , , , , , ! % ~ , , , , , , , , , , , , , , , , , , , , { * ] ",
", , , , , , , , , , , , , , , , , , , ' - ) , , , , , , , , , , , , , , , , , , , , ! % ~ , , , , , , , , , , , , , , , , , , , , { * ] ",
", , , , , , , , , , , , , , , , , , , ' - ) , , , , , , , , , , , , , , , , , , , , ! % ~ , , , , , , , , , , , , , , , , , , , , { * ] ",
", , , , , , , , , , , , , , , , , , , ' - # , , , , , , , , , , , , , , , , , , , , ! % ^ , , , , , , , , , , , , , , , , , , , , = * ] ",
"& & & & & & & & & & & & & & & & & & & - / ; & & & & & & & & & & & & & & & & & & & & - + - & & & & & & & & & & & & & & & & & & & & ; % ( ",
"_ _ : < [ [ [ [ [ [ [ } | 1 2 _ _ _ _ _ _ _ _ _ _ 3 [ [ [ [ [ [ [ [ 4 2 1 | _ _ _ _ _ _ _ _ _ _ 5 [ [ [ [ [ [ [ 6 7 8 8 _ _ _ _ _ _ _ 9 ",
"0 0 a b c c c c c c c d e f g 0 0 0 0 0 0 0 0 0 0 h c c c c c c c c i g f e 0 0 0 0 0 0 0 0 0 0 j c c c c c c c k l m n 0 0 0 0 0 0 0 o ",
"0 0 a b c c c c c c c d e f g 0 0 0 0 0 0 0 0 0 0 h c c c c c c c c i g f e 0 0 0 0 0 0 0 0 0 0 j c c c c c c c k l m n 0 0 0 0 0 0 0 o ",
"p p q r s s s s s s s t u v w p p p p p p p p p p x s s s s s s s s y w v z p p p p p p p p p p A s s s s s s s B C D D p p p p p p u E ",
"F F G H I I I I I I I J K L M F F F F F F F F F F N I I I I I I I I O M L K F F F F F F F F F F J I I I I I I I P Q R R F F F F F F S T ",
"F F G H I I I I I I I J K L M F F F F F F F F F F N I I I I I I I I O M L K F F F F F F F F F F J I I I I I I I P Q R R F F F F F F S T ",
"U U V W X X X X X X X Y V Z ` U U U U U U U U U U  .X X X X X X X X ..` Z V U U U U U U U U U U Y X X X X X X X +.U @.@.U U U U U U Y T ",
"#.#.#.#.#.#.#.#.#.#.#.#.#.#.#.#.#.#.#.#.#.#.#.#.#.#.#.#.#.#.#.#.#.#.#.#.#.#.#.#.#.#.#.#.#.#.#.#.#.#.#.#.#.#.#.#.#.#.#.#.#.#.#.#.#.#.#.$.",
"% % % % % % % % % % % % % % % ; %.%.%.%.%.&.; %.%.%.%.%.%.%.%.%.%.%.%.%.%.%.%.%.%.%.%.%.%.%.%.%.%.- % % % % % % % % % % % % % % % / + @ ",
") *.*.*.*.*.*.*.*.*.*.*.*.*.*.=.-.-.-.-.-.;.>.,.-.-.-.-.-.-.-.-.-.-.-.-.-.-.-.-.-.-.-.-.-.-.-.-.-.'.*.*.*.*.*.*.*.*.*.*.*.*.*.*.*.* + @ ",
"^ , , , , , , , , , , , , , , ).!.!.!.!.!.'.~.{.!.!.!.!.!.!.!.!.!.!.!.!.!.!.!.!.!.!.!.!.!.!.!.!.!.-., , , , , , , , , , , , , , , { + @ ",
") *.*.*.*.*., , , , , , , , , ~.].^.^.^.^./.(._.^.^.^.^.^.^.^.^.^.^.^.^.^.^.^.^.^.^.^.^.^.^.^.^.^.:., , , , , , , , , <.*.*.*.*.*.* + @ ",
"% % % % % * [., , , , , , , , , }.}.}.}.}.>., >.}.}.}.}.}.}.}.}.}.}.}.}.}.}.}.}.}.}.}.}.}.}.}.}.}.>., , , , , , , , , |.% % % % % / + @ ",
"+ 1.2.2.2.'.3.3.3.4.#.4.5.6.7.7.7.7.7.7.7.7.7.7.8.8.9.0.a.a.a.a.a.a.5.b.7.7.7.7.7.7.7.7.7.7.7.7.7.7.7.7.c.d.e.{.3.3.3.:.2.2.2.;.- + + @ ",
"+ f.-.-.-._.!.!.!.#.g.h.i.j.I I I I I I I I I I k.k.l.m.n.n.n.n.n.n.^.o.I I I I I I I I I I I I I I I I 7.p.q.r.!.!.!.{.-.-.-.'.%.+ + @ ",
"+ { , , , ~.{.!.!.#.g.s.r.t.I I I I I I I I I I k.k.l.m.n.n.n.n.n.n.u.v.I I I I I I I I I I I I I I I I k.w.x.r.!.!.!.4., , , *.; + + @ ",
"+ { , , , ~.{.!.!.#.g.s.r.t.I I I I I I I I I I k.k.l.m.n.n.n.n.n.n.u.v.I I I I I I I I I I I I I I I I k.w.x.r.!.!.!.4., , , *.; + + @ ",
"+ - ) ) ) y.z.'.:.3.u.u.A.B.C.C.C.C.C.C.C.C.C.C.D.D.E.F.G.G.G.G.G.G.w.8.C.C.C.C.C.C.C.C.C.C.C.C.C.C.C.C.H.I.r.!.:.:.2.J.) ) ) $ % + + @ ",
"; ; - K.L.L.1.=.M.N.w.r.r.r.r.r.r.r.r.r.r.A.A.O.o.o.o.o.P.r.O.0.r.r.r.r.r.r.r.r.r.r.r.r.r.r.r.r.r.r.r.r.r.r.r.^.M.M.Q.R.L.L.* ; ; % + @ ",
"! ' Q.,.].S.8.T.q.g.U.t.t.t.t.t.t.t.t.t.t.X V.W.X.X.X.X.Y.Z.W.`.t.t.t.t.t.t.t.t.t.t.t.t.t.t.t.t.t.t.t.t.t.t.t.E.q.q.T.u.].]./.' ' = + @ ",
"^ ,  +^.!.A..+n.n.++j.I I I I I I I I I I @.Y G F F F F @+H K J I I I I I I I I I I I I I I I I I I I I I I I @.n.n.n.#+!.!.p., , { + @ ",
"^ ,  +^.!.A..+n.n.++j.I I I I I I I I I I W V.K F F F F @+H K J I I I I I I I I I I I I I I I I I I I I I I I @.n.n.n.#+!.!.p., , { + @ ",
"^ ,  +^.!.A..+n.n.++j.I I I I I I I I I I $+%+K F F F F @+H K J I I I I I I I I I I I I I I I I I I I I I I I @.n.n.n.#+!.!.p., , { + @ ",
"- * = y.f.&+;.*+4.=+8.D.D.D.D.D.D.D.D.D.D.r.u.-+;+;+>+,+Y Z V Y X X X X X X X B.H.D.D.D.D.D.D.D.D.D.D.D.D.D.D.a.4.4./.'+f.f.)+* * ; + @ ",
"+ ; = = !+~+#.{+]+^+H.G.u.>+/+/+/+/+/+/+/+/+/+/+/+/+(+_+:+:+:+:+:+:+m.<+:+:+:+_+(+/+/+/+/+/+/+/+/+/+/+/+[+w.x.o.]+]+h.^./.^ = * / + + @ ",
"+ { , , }+|+1+2+2+2+2+B.3+4+5+5+5+5+5+5+5+5+5+5+5+5+5+F F F F F F F V :+5+5+5+5+5+5+5+5+5+5+5+5+5+5+5+5+6+u.7+2+2+2+2+U.q.8+, *.; + + @ ",
"+ { , , 9+0+|+B.B.B.B.q.a+b+H H H H H H H H H H H H P c+F F F F F F V Y H H H H H H H H H H H H H H H H @.w.++B.B.B.B.O.5.}., *.; + + @ ",
"+ { , , , d+D.n.n.n.n.s.r.t.I I I I I I I I I I I I e+c+F F F F F F f+m.I I I I I I I I I I I I I I I I k.w.x.n.n.n.n.g+, , , *.; + + @ ",
"+ * *.*.*.~.]+s.8.8.q.r.h+U.i+i+i+i+i+i+i+i+i+i+i+i+j+k+l+l+l+l+l+l+[+H.i+i+i+i+i+i+i+i+i+i+i+i+i+i+i+i+|+I.T.T.8.8.s.m+*.*.*.! % + + @ ",
"+ / % % % ; K.Q.d.~.n+#.!.o+A.A.A.A.A.A.A.A.A.A.A.A.A.u.]+]+]+]+]+]+w.I.A.A.A.A.A.A.A.A.A.A.A.A.A.A.A.A.w.!.I.3.d.d.^ * % % % % + + + @ ",
"$ !+2.2._.#.#.w.a.g+B.W W W W W W W W W W F.O.p+q+q+q+q+q+r+@.W W W W W W W W W W W W W W W W W W W W W W W W D.a.a.s+#.S.:.2.t+^ & + @ ",
"^ u+-.-.w.q.q.q.q.q.@.i+i+i+i+i+i+i+i+i+i+v+w+W.N M x+y+W.Y.j.i+i+i+i+i+i+i+i+i+i+i+i+i+i+i+i+i+i+i+i+i+i+i+i+B.q.q.q.q.8.{.-.:.>.{ + @ ",
"^ , , , p.!.!.!.!.#.g.n.n.n.n.n.n.n.n.n.n.r.8.2+I 7+++j.U.n.n.n.n.n.n.n.n.n.n.n.n.n.n.n.n.n.n.n.n.n.n.n.n.n.n.r.!.!.!.!.{.~., , , { + @ ",
"^ , , , p.!.!.!.!.#.g.n.n.n.n.n.n.n.n.n.n.#.e.z+I 7+++j.U.n.n.n.n.n.n.n.n.n.n.n.n.n.n.n.n.n.n.n.n.n.n.n.n.n.n.r.!.!.!.!.{.~., , , { + @ ",
"= ) ) ) !+A+A+'.:.~+}+s+s+s+s+s+s+s+s+s+s+*+B+C+D+o.E+F.P.s+s+s+s+s+s+s+s+s+s+s+s+s+s+s+s+s+s+s+s+s+s+s+s+s+s+^.:.:./.A+;.y.) ) ) - + @ ",
"+ % ; ; ; - F+*.>.d.d.>.>.~.M.M.M.M.M.M.M.M.M.M.(.(.M.(.d.d.d.d.d.d.>. +M.M.M.M.M.M.M.M.M.M.M.M.M.M.M.M.d., =.d. +, R.* ; ; ; ; + + + @ ",
"+ = ' ' ' =._.;.).G+G+'.M.0.q.q.q.q.q.q.q.q.q.q.w.w.T.#.G+G+G+G+G+G+~.=+q.q.q.q.q.q.q.q.q.q.q.q.q.q.q.q.}+}.-.G+H+>.p.'.' ' ' ^ I++ + @ ",
"+ { , , , ~.{.5.J+!.!.p.N.g.n.n.n.n.n.n.n.n.n.n.h+h+.+A.!.!.!.!.!.!.).^.n.n.n.n.n.n.n.n.n.n.n.n.n.n.n.n.w.=.^.!._.>.H+4., , , *.; + + @ ",
"+ { , , , ~.{.5.J+!.!.p.N.g.n.n.n.n.n.n.n.n.n.n.h+h+.+A.!.!.!.!.!.!.).^.n.n.n.n.n.n.n.n.n.n.n.n.n.n.n.n.w.=.^.!._.>.H+4., , , *.; + + @ ",
"+ { , , , ~.{.5.J+!.!.p.N.g.n.n.n.n.n.n.n.n.n.n.h+h+.+A.!.!.!.!.!.!.).^.n.n.n.n.n.n.n.n.n.n.n.n.n.n.n.n.w.=.^.!._.>.H+4., , , *.; + + @ ",
"+ ; * * * R.;. + +).).d.}.K+4.4.4.4.4.4.4.4.4.4.d+8+L+/.).).).).).).}.~.4.4.4.4.4.4.4.4.4.4.4.4.4.4.4.4.5.>.u+).~., M+!+* * * & / + + @ ",
"!+!+!+!+;.'./.4.N+N+{+]+O+P+Q+Q+Q+Q+Q+Q+Q+Q+Q+Q+Q+Q+Q+Q+Q+Q+Q+Q+Q+Q+Q+Q+Q+Q+Q+Q+Q+Q+Q+Q+Q+Q+Q+Q+Q+Q+Q+Q+R+]+]+e.N+N+p./.S+J.!+!+!+!+T+@ ",
"!.!.!.!.s.U+I.#+n.++j.I H K F F F F F F F F F F F F F F F F F F F F F F F F F F F F F F F F F F F F F F M I I @.n.n.h+h+.+A.!.!.!.!.:.@ ",
"!.!.!.!.s.U+I.#+n.++j.I H K F F F F F F F F F F F F F F F F F F F F F F F F F F F F F F F F F F F F F F M I I @.n.n.h+h+.+A.!.!.!.!.:.@ ",
"V+V+V+V+'.~+;.:.W+_.u.a+o.X+Y+Z+Z+Z+Z+Z+Z+Z+Z+Z+Z+Z+Z+Z+Z+Z+Z+Z+Z+Z+Z+Z+Z+Z+Z+Z+Z+Z+Z+Z+Z+Z+Z+Z+Z+Z+Z+`+ @a+a+E+W+W+.@.@H+A+V+V+V+V++@@ ",
"+ + + + + + + + + + + + + + ! , , , , , , , , , , , , , , , , , , , , , , , , , , , , , , , , , , , , * + + + + + + + + + + + + + + + @ ",
"+ + + + + + + + + + + + + + ! , , , , , , , , , , , , , , , , , , , , , , , , , , , , , , , , , , , , * + + + + + + + + + + + + + + + @ ",
"+ + + + + + + + + + + + + + ! , , , , , , , , , , , , , , , , , , , , , , , , , , , , , , , , , , , , * + + + + + + + + + + + + + + + @ ",
"= = = = = = = = = # @@#@#@#@$@%@%@%@%@%@%@%@%@%@%@%@%@%@%@%@%@%@%@%@%@%@%@%@%@%@%@%@%@%@%@%@%@%@%@%@%@&@#@#@#@*@= = = = = = = = = = - @ ",
", , , , , , , , , =@-@G G G G G G G G G G G G G G G G G G G G G G G G G G G G G G G G G G G G G G G G G G G G ;@, , , , , , , , , , |.@ ",
"& & & & & & & & & = >@,@'@'@'@'@'@'@'@'@'@'@'@'@'@'@'@'@'@'@'@'@'@'@'@'@'@'@'@'@'@'@'@'@'@'@'@'@'@'@'@'@'@)@!@~@& & & & & & & & & & - @ ",
"+ + + + + + + + + + + $ , , , , , , , , , , , , , , , , , , , , , , , , , , , , , , , , , , , , , , , , , ' &.+ + + + + + + + + + + + @ ",
"                      {@]@]@]@]@]@]@]@]@]@]@]@]@]@]@]@]@]@]@]@]@]@]@]@]@]@]@]@]@]@]@]@]@]@]@]@]@]@]@]@]@]@]@^@                        . "};
